  0
SECTION
  2
HEADER
  9
$ACADVER
  1
AC1032
  9
$ACADMAINTVER
 90
4
  9
$DWGCODEPAGE
  3
ANSI_1252
  9
$LASTSAVEDBY
  1
ezdxf
  9
$REQUIREDVERSIONS
160
0
  9
$INSBASE
 10
0.0
 20
0.0
 30
0.0
  9
$EXTMIN
 10
1e+20
 20
1e+20
 30
1e+20
  9
$EXTMAX
 10
-1e+20
 20
-1e+20
 30
-1e+20
  9
$LIMMIN
 10
0.0
 20
0.0
  9
$LIMMAX
 10
420.0
 20
297.0
  9
$ORTHOMODE
 70
0
  9
$REGENMODE
 70
1
  9
$FILLMODE
 70
1
  9
$QTEXTMODE
 70
0
  9
$MIRRTEXT
 70
1
  9
$LTSCALE
 40
1.0
  9
$ATTMODE
 70
1
  9
$TEXTSIZE
 40
2.5
  9
$TRACEWID
 40
1.0
  9
$TEXTSTYLE
  7
Standard
  9
$CLAYER
  8
0
  9
$CELTYPE
  6
ByLayer
  9
$CECOLOR
 62
256
  9
$CELTSCALE
 40
1.0
  9
$DISPSILH
 70
0
  9
$DIMSCALE
 40
1.0
  9
$DIMASZ
 40
2.5
  9
$DIMEXO
 40
0.625
  9
$DIMDLI
 40
3.75
  9
$DIMRND
 40
0.0
  9
$DIMDLE
 40
0.0
  9
$DIMEXE
 40
1.25
  9
$DIMTP
 40
0.0
  9
$DIMTM
 40
0.0
  9
$DIMTXT
 40
2.5
  9
$DIMCEN
 40
2.5
  9
$DIMTSZ
 40
0.0
  9
$DIMTOL
 70
0
  9
$DIMLIM
 70
0
  9
$DIMTIH
 70
0
  9
$DIMTOH
 70
0
  9
$DIMSE1
 70
0
  9
$DIMSE2
 70
0
  9
$DIMTAD
 70
1
  9
$DIMZIN
 70
8
  9
$DIMBLK
  1

  9
$DIMASO
 70
1
  9
$DIMSHO
 70
1
  9
$DIMPOST
  1

  9
$DIMAPOST
  1

  9
$DIMALT
 70
0
  9
$DIMALTD
 70
3
  9
$DIMALTF
 40
0.03937007874
  9
$DIMLFAC
 40
1.0
  9
$DIMTOFL
 70
1
  9
$DIMTVP
 40
0.0
  9
$DIMTIX
 70
0
  9
$DIMSOXD
 70
0
  9
$DIMSAH
 70
0
  9
$DIMBLK1
  1

  9
$DIMBLK2
  1

  9
$DIMSTYLE
  2
ISO-25
  9
$DIMCLRD
 70
0
  9
$DIMCLRE
 70
0
  9
$DIMCLRT
 70
0
  9
$DIMTFAC
 40
1.0
  9
$DIMGAP
 40
0.625
  9
$DIMJUST
 70
0
  9
$DIMSD1
 70
0
  9
$DIMSD2
 70
0
  9
$DIMTOLJ
 70
0
  9
$DIMTZIN
 70
8
  9
$DIMALTZ
 70
0
  9
$DIMALTTZ
 70
0
  9
$DIMUPT
 70
0
  9
$DIMDEC
 70
2
  9
$DIMTDEC
 70
2
  9
$DIMALTU
 70
2
  9
$DIMALTTD
 70
3
  9
$DIMTXSTY
  7
Standard
  9
$DIMAUNIT
 70
0
  9
$DIMADEC
 70
0
  9
$DIMALTRND
 40
0.0
  9
$DIMAZIN
 70
0
  9
$DIMDSEP
 70
44
  9
$DIMATFIT
 70
3
  9
$DIMFRAC
 70
0
  9
$DIMLDRBLK
  1

  9
$DIMLUNIT
 70
2
  9
$DIMLWD
 70
-2
  9
$DIMLWE
 70
-2
  9
$DIMTMOVE
 70
0
  9
$DIMFXL
 40
1.0
  9
$DIMFXLON
 70
0
  9
$DIMJOGANG
 40
0.785398163397
  9
$DIMTFILL
 70
0
  9
$DIMTFILLCLR
 70
0
  9
$DIMARCSYM
 70
0
  9
$DIMLTYPE
  6

  9
$DIMLTEX1
  6

  9
$DIMLTEX2
  6

  9
$DIMTXTDIRECTION
 70
0
  9
$LUNITS
 70
2
  9
$LUPREC
 70
4
  9
$SKETCHINC
 40
1.0
  9
$FILLETRAD
 40
10.0
  9
$AUNITS
 70
0
  9
$AUPREC
 70
2
  9
$MENU
  1
.
  9
$ELEVATION
 40
0.0
  9
$PELEVATION
 40
0.0
  9
$THICKNESS
 40
0.0
  9
$LIMCHECK
 70
0
  9
$CHAMFERA
 40
0.0
  9
$CHAMFERB
 40
0.0
  9
$CHAMFERC
 40
0.0
  9
$CHAMFERD
 40
0.0
  9
$SKPOLY
 70
0
  9
$TDCREATE
 40
2461313.001527778
  9
$TDUCREATE
 40
2458532.153996898
  9
$TDUPDATE
 40
2461313.001527778
  9
$TDUUPDATE
 40
2458532.1544311
  9
$TDINDWG
 40
0.0
  9
$TDUSRTIMER
 40
0.0
  9
$USRTIMER
 70
1
  9
$ANGBASE
 50
0.0
  9
$ANGDIR
 70
0
  9
$PDMODE
 70
0
  9
$PDSIZE
 40
0.0
  9
$PLINEWID
 40
0.0
  9
$SPLFRAME
 70
0
  9
$SPLINETYPE
 70
6
  9
$SPLINESEGS
 70
8
  9
$HANDSEED
  5
22E
  9
$SURFTAB1
 70
6
  9
$SURFTAB2
 70
6
  9
$SURFTYPE
 70
6
  9
$SURFU
 70
6
  9
$SURFV
 70
6
  9
$UCSBASE
  2

  9
$UCSNAME
  2

  9
$UCSORG
 10
0.0
 20
0.0
 30
0.0
  9
$UCSXDIR
 10
1.0
 20
0.0
 30
0.0
  9
$UCSYDIR
 10
0.0
 20
1.0
 30
0.0
  9
$UCSORTHOREF
  2

  9
$UCSORTHOVIEW
 70
0
  9
$UCSORGTOP
 10
0.0
 20
0.0
 30
0.0
  9
$UCSORGBOTTOM
 10
0.0
 20
0.0
 30
0.0
  9
$UCSORGLEFT
 10
0.0
 20
0.0
 30
0.0
  9
$UCSORGRIGHT
 10
0.0
 20
0.0
 30
0.0
  9
$UCSORGFRONT
 10
0.0
 20
0.0
 30
0.0
  9
$UCSORGBACK
 10
0.0
 20
0.0
 30
0.0
  9
$PUCSBASE
  2

  9
$PUCSNAME
  2

  9
$PUCSORG
 10
0.0
 20
0.0
 30
0.0
  9
$PUCSXDIR
 10
1.0
 20
0.0
 30
0.0
  9
$PUCSYDIR
 10
0.0
 20
1.0
 30
0.0
  9
$PUCSORTHOREF
  2

  9
$PUCSORTHOVIEW
 70
0
  9
$PUCSORGTOP
 10
0.0
 20
0.0
 30
0.0
  9
$PUCSORGBOTTOM
 10
0.0
 20
0.0
 30
0.0
  9
$PUCSORGLEFT
 10
0.0
 20
0.0
 30
0.0
  9
$PUCSORGRIGHT
 10
0.0
 20
0.0
 30
0.0
  9
$PUCSORGFRONT
 10
0.0
 20
0.0
 30
0.0
  9
$PUCSORGBACK
 10
0.0
 20
0.0
 30
0.0
  9
$USERI1
 70
0
  9
$USERI2
 70
0
  9
$USERI3
 70
0
  9
$USERI4
 70
0
  9
$USERI5
 70
0
  9
$USERR1
 40
0.0
  9
$USERR2
 40
0.0
  9
$USERR3
 40
0.0
  9
$USERR4
 40
0.0
  9
$USERR5
 40
0.0
  9
$WORLDVIEW
 70
1
  9
$SHADEDGE
 70
3
  9
$SHADEDIF
 70
70
  9
$TILEMODE
 70
1
  9
$MAXACTVP
 70
64
  9
$PINSBASE
 10
0.0
 20
0.0
 30
0.0
  9
$PLIMCHECK
 70
0
  9
$PEXTMIN
 10
1e+20
 20
1e+20
 30
1e+20
  9
$PEXTMAX
 10
-1e+20
 20
-1e+20
 30
-1e+20
  9
$PLIMMIN
 10
0.0
 20
0.0
  9
$PLIMMAX
 10
420.0
 20
297.0
  9
$UNITMODE
 70
0
  9
$VISRETAIN
 70
1
  9
$PLINEGEN
 70
0
  9
$PSLTSCALE
 70
1
  9
$TREEDEPTH
 70
3020
  9
$CMLSTYLE
  2
Standard
  9
$CMLJUST
 70
0
  9
$CMLSCALE
 40
20.0
  9
$PROXYGRAPHICS
 70
1
  9
$MEASUREMENT
 70
1
  9
$CELWEIGHT
370
-1
  9
$ENDCAPS
280
0
  9
$JOINSTYLE
280
0
  9
$LWDISPLAY
290
0
  9
$INSUNITS
 70
6
  9
$HYPERLINKBASE
  1

  9
$STYLESHEET
  1

  9
$XEDIT
290
1
  9
$CEPSNTYPE
380
0
  9
$PSTYLEMODE
290
1
  9
$FINGERPRINTGUID
  2
{245C6100-188A-46DE-B91C-372FAD6F9FD5}
  9
$VERSIONGUID
  2
{869901CD-405A-4D93-8860-1EC56026515C}
  9
$EXTNAMES
290
1
  9
$PSVPSCALE
 40
0.0
  9
$OLESTARTUP
290
0
  9
$SORTENTS
280
127
  9
$INDEXCTL
280
0
  9
$HIDETEXT
280
1
  9
$XCLIPFRAME
280
1
  9
$HALOGAP
280
0
  9
$OBSCOLOR
 70
257
  9
$OBSLTYPE
280
0
  9
$INTERSECTIONDISPLAY
280
0
  9
$INTERSECTIONCOLOR
 70
257
  9
$DIMASSOC
280
2
  9
$PROJECTNAME
  1

  9
$CAMERADISPLAY
290
0
  9
$LENSLENGTH
 40
50.0
  9
$CAMERAHEIGHT
 40
0.0
  9
$STEPSPERSEC
 40
24.0
  9
$STEPSIZE
 40
100.0
  9
$3DDWFPREC
 40
2.0
  9
$PSOLWIDTH
 40
0.005
  9
$PSOLHEIGHT
 40
0.08
  9
$LOFTANG1
 40
1.570796326795
  9
$LOFTANG2
 40
1.570796326795
  9
$LOFTMAG1
 40
0.0
  9
$LOFTMAG2
 40
0.0
  9
$LOFTPARAM
 70
7
  9
$LOFTNORMALS
280
1
  9
$LATITUDE
 40
37.795
  9
$LONGITUDE
 40
-122.394
  9
$NORTHDIRECTION
 40
0.0
  9
$TIMEZONE
 70
-8000
  9
$LIGHTGLYPHDISPLAY
280
1
  9
$TILEMODELIGHTSYNCH
280
1
  9
$CMATERIAL
347
20
  9
$SOLIDHIST
280
0
  9
$SHOWHIST
280
1
  9
$DWFFRAME
280
2
  9
$DGNFRAME
280
2
  9
$REALWORLDSCALE
290
1
  9
$INTERFERECOLOR
 62
256
  9
$CSHADOW
280
0
  9
$SHADOWPLANELOCATION
 40
0.0
  0
ENDSEC
  0
SECTION
  2
CLASSES
  0
CLASS
  1
ACDBDICTIONARYWDFLT
  2
AcDbDictionaryWithDefault
  3
ObjectDBX Classes
 90
0
 91
0
280
0
281
0
  0
CLASS
  1
SUN
  2
AcDbSun
  3
SCENEOE
 90
1153
 91
0
280
0
281
0
  0
CLASS
  1
VISUALSTYLE
  2
AcDbVisualStyle
  3
ObjectDBX Classes
 90
4095
 91
0
280
0
281
0
  0
CLASS
  1
MATERIAL
  2
AcDbMaterial
  3
ObjectDBX Classes
 90
1153
 91
0
280
0
281
0
  0
CLASS
  1
SCALE
  2
AcDbScale
  3
ObjectDBX Classes
 90
1153
 91
0
280
0
281
0
  0
CLASS
  1
TABLESTYLE
  2
AcDbTableStyle
  3
ObjectDBX Classes
 90
4095
 91
0
280
0
281
0
  0
CLASS
  1
MLEADERSTYLE
  2
AcDbMLeaderStyle
  3
ACDB_MLEADERSTYLE_CLASS
 90
4095
 91
0
280
0
281
0
  0
CLASS
  1
DICTIONARYVAR
  2
AcDbDictionaryVar
  3
ObjectDBX Classes
 90
0
 91
0
280
0
281
0
  0
CLASS
  1
CELLSTYLEMAP
  2
AcDbCellStyleMap
  3
ObjectDBX Classes
 90
1152
 91
0
280
0
281
0
  0
CLASS
  1
MENTALRAYRENDERSETTINGS
  2
AcDbMentalRayRenderSettings
  3
SCENEOE
 90
1024
 91
0
280
0
281
0
  0
CLASS
  1
ACDBDETAILVIEWSTYLE
  2
AcDbDetailViewStyle
  3
ObjectDBX Classes
 90
1025
 91
0
280
0
281
0
  0
CLASS
  1
ACDBSECTIONVIEWSTYLE
  2
AcDbSectionViewStyle
  3
ObjectDBX Classes
 90
1025
 91
0
280
0
281
0
  0
CLASS
  1
RASTERVARIABLES
  2
AcDbRasterVariables
  3
ISM
 90
0
 91
0
280
0
281
0
  0
CLASS
  1
LAYOUT
  2
AcDbLayout
  3
ObjectDBX Classes
 90
0
 91
0
280
0
281
0
  0
CLASS
  1
ACDBPLACEHOLDER
  2
AcDbPlaceHolder
  3
ObjectDBX Classes
 90
0
 91
0
280
0
281
0
  0
ENDSEC
  0
SECTION
  2
TABLES
  0
TABLE
  2
VPORT
  5
8
330
0
100
AcDbSymbolTable
 70
1
  0
VPORT
  5
23
330
8
100
AcDbSymbolTableRecord
100
AcDbViewportTableRecord
  2
*Active
 70
0
 10
0.0
 20
0.0
 11
1.0
 21
1.0
 12
0.0
 22
0.0
 13
0.0
 23
0.0
 14
0.5
 24
0.5
 15
0.5
 25
0.5
 16
0.0
 26
0.0
 36
1.0
 17
0.0
 27
0.0
 37
0.0
 40
1000.0
 41
1.34
 42
50.0
 43
0.0
 44
0.0
 50
0.0
 51
0.0
 71
0
 72
1000
 73
1
 74
3
 75
0
 76
0
 77
0
 78
0
281
0
 65
0
146
0.0
  0
ENDTAB
  0
TABLE
  2
LTYPE
  5
2
330
0
100
AcDbSymbolTable
 70
3
  0
LTYPE
  5
24
330
2
100
AcDbSymbolTableRecord
100
AcDbLinetypeTableRecord
  2
ByBlock
 70
0
  3

 72
65
 73
0
 40
0.0
  0
LTYPE
  5
25
330
2
100
AcDbSymbolTableRecord
100
AcDbLinetypeTableRecord
  2
ByLayer
 70
0
  3

 72
65
 73
0
 40
0.0
  0
LTYPE
  5
26
330
2
100
AcDbSymbolTableRecord
100
AcDbLinetypeTableRecord
  2
Continuous
 70
0
  3

 72
65
 73
0
 40
0.0
  0
ENDTAB
  0
TABLE
  2
LAYER
  5
1
330
0
100
AcDbSymbolTable
 70
3
  0
LAYER
  5
27
330
1
100
AcDbSymbolTableRecord
100
AcDbLayerTableRecord
  2
0
 70
0
 62
7
  6
Continuous
370
-3
390
13
347
21
  0
LAYER
  5
28
330
1
100
AcDbSymbolTableRecord
100
AcDbLayerTableRecord
  2
Defpoints
 70
0
 62
7
  6
Continuous
290
0
370
-3
390
13
347
21
  0
LAYER
  5
2F
330
1
100
AcDbSymbolTableRecord
100
AcDbLayerTableRecord
  2
2D$FER
 70
0
 62
7
  6
Continuous
370
-3
390
13
347
21
  0
ENDTAB
  0
TABLE
  2
STYLE
  5
5
330
0
100
AcDbSymbolTable
 70
1
  0
STYLE
  5
29
330
5
100
AcDbSymbolTableRecord
100
AcDbTextStyleTableRecord
  2
Standard
 70
0
 40
0.0
 41
1.0
 50
0.0
 71
0
 42
2.5
  3
txt
  4

  0
ENDTAB
  0
TABLE
  2
VIEW
  5
7
330
0
100
AcDbSymbolTable
 70
0
  0
ENDTAB
  0
TABLE
  2
UCS
  5
6
330
0
100
AcDbSymbolTable
 70
0
  0
ENDTAB
  0
TABLE
  2
APPID
  5
3
330
0
100
AcDbSymbolTable
 70
3
  0
APPID
  5
2A
330
3
100
AcDbSymbolTableRecord
100
AcDbRegAppTableRecord
  2
ACAD
 70
0
  0
APPID
  5
22B
330
3
100
AcDbSymbolTableRecord
100
AcDbRegAppTableRecord
  2
HATCHBACKGROUNDCOLOR
 70
0
  0
APPID
  5
22C
330
3
100
AcDbSymbolTableRecord
100
AcDbRegAppTableRecord
  2
EZDXF
 70
0
  0
ENDTAB
  0
TABLE
  2
DIMSTYLE
  5
4
330
0
100
AcDbSymbolTable
 70
1
100
AcDbDimStyleTable
  0
DIMSTYLE
105
2B
330
4
100
AcDbSymbolTableRecord
100
AcDbDimStyleTableRecord
  2
Standard
 70
0
 40
1.0
 41
2.5
 42
0.625
 43
3.75
 44
1.25
 45
0.0
 46
0.0
 47
0.0
 48
0.0
 49
2.5
140
2.5
141
2.5
142
0.0
143
0.03937007874
144
1.0
145
0.0
146
1.0
147
0.625
148
0.0
 69
0
 70
0
 71
0
 72
0
 73
0
 74
0
 75
0
 76
0
 77
1
 78
8
 79
3
170
0
171
3
172
1
173
0
174
0
175
0
176
0
177
0
178
0
179
2
271
2
272
2
273
2
274
3
275
0
276
0
277
2
278
44
279
0
280
0
281
0
282
0
283
0
284
8
285
0
286
0
288
0
289
3
290
0
371
-2
372
-2
  0
ENDTAB
  0
TABLE
  2
BLOCK_RECORD
  5
9
330
0
100
AcDbSymbolTable
 70
2
  0
BLOCK_RECORD
  5
17
330
9
100
AcDbSymbolTableRecord
100
AcDbBlockTableRecord
  2
*Model_Space
340
1A
 70
0
280
1
281
0
  0
BLOCK_RECORD
  5
1B
330
9
100
AcDbSymbolTableRecord
100
AcDbBlockTableRecord
  2
*Paper_Space
340
1E
 70
0
280
1
281
0
  0
ENDTAB
  0
ENDSEC
  0
SECTION
  2
BLOCKS
  0
BLOCK
  5
18
330
17
100
AcDbEntity
  8
0
100
AcDbBlockBegin
  2
*Model_Space
 70
0
 10
0.0
 20
0.0
 30
0.0
  3
*Model_Space
  1

  0
ENDBLK
  5
19
330
17
100
AcDbEntity
  8
0
100
AcDbBlockEnd
  0
BLOCK
  5
1C
330
1B
100
AcDbEntity
  8
0
100
AcDbBlockBegin
  2
*Paper_Space
 70
0
 10
0.0
 20
0.0
 30
0.0
  3
*Paper_Space
  1

  0
ENDBLK
  5
1D
330
1B
100
AcDbEntity
  8
0
100
AcDbBlockEnd
  0
ENDSEC
  0
SECTION
  2
ENTITIES
  0
LINE
  5
30
330
17
100
AcDbEntity
  8
2D$FER
100
AcDbLine
 10
-81.63447753025685
 20
52.63813132250471
 30
0.0
 11
-81.63447753025685
 21
36.22285921411822
 31
0.0
  0
LINE
  5
31
330
17
100
AcDbEntity
  8
2D$FER
100
AcDbLine
 10
-81.08616806160717
 20
52.63813132250471
 30
0.0
 11
-81.08616806160717
 21
36.22285921411822
 31
0.0
  0
LINE
  5
32
330
17
100
AcDbEntity
  8
2D$FER
100
AcDbLine
 10
-68.46032279593055
 20
63.46400077976432
 30
0.0
 11
-68.46032279593055
 21
47.67617577875717
 31
0.0
  0
LINE
  5
33
330
17
100
AcDbEntity
  8
2D$FER
100
AcDbLine
 10
-69.86032279592473
 20
63.46400077976432
 30
0.0
 11
-69.86032279592473
 21
47.67617577875717
 31
0.0
  0
LINE
  5
34
330
17
100
AcDbEntity
  8
2D$FER
100
AcDbLine
 10
-92.86032279592473
 20
63.46400077976614
 30
0.0
 11
-92.86032279592473
 21
47.67617577875899
 31
0.0
  0
LINE
  5
35
330
17
100
AcDbEntity
  8
2D$FER
100
AcDbLine
 10
-94.26032279593346
 20
63.46400077976614
 30
0.0
 11
-94.26032279593346
 21
47.67617577875899
 31
0.0
  0
LINE
  5
36
330
17
100
AcDbEntity
  8
2D$FER
100
AcDbLine
 10
-57.23447753024811
 20
52.63813132250471
 30
0.0
 11
-57.23447753026267
 21
36.22285921411822
 31
0.0
  0
LINE
  5
37
330
17
100
AcDbEntity
  8
2D$FER
100
AcDbLine
 10
-56.68616806161299
 20
52.63813132250471
 30
0.0
 11
-56.68616806161299
 21
36.22285921411822
 31
0.0
  0
LINE
  5
38
330
17
100
AcDbEntity
  8
2D$FER
100
AcDbLine
 10
-44.06032279593637
 20
63.46400077976432
 30
0.0
 11
-44.06032279593637
 21
47.67617577875717
 31
0.0
  0
LINE
  5
39
330
17
100
AcDbEntity
  8
2D$FER
100
AcDbLine
 10
-45.46032279593055
 20
63.46400077976432
 30
0.0
 11
-45.46032279593055
 21
47.67617577875717
 31
0.0
  0
LINE
  5
3A
330
17
100
AcDbEntity
  8
2D$FER
100
AcDbLine
 10
-32.83447753025393
 20
52.63813132250652
 30
0.0
 11
-32.83447753025393
 21
36.22285921412004
 31
0.0
  0
LINE
  5
3B
330
17
100
AcDbEntity
  8
2D$FER
100
AcDbLine
 10
-32.28616806160426
 20
52.63813132250652
 30
0.0
 11
-32.28616806160426
 21
36.22285921412004
 31
0.0
  0
LINE
  5
3C
330
17
100
AcDbEntity
  8
2D$FER
100
AcDbLine
 10
-19.66032279592764
 20
63.46400077976614
 30
0.0
 11
-19.66032279592764
 21
47.67617577875899
 31
0.0
  0
LINE
  5
3D
330
17
100
AcDbEntity
  8
2D$FER
100
AcDbLine
 10
-21.06032279593637
 20
63.46400077976614
 30
0.0
 11
-21.06032279593637
 21
47.67617577875899
 31
0.0
  0
ARC
  5
3E
330
17
100
AcDbEntity
  8
2D$FER
100
AcDbCircle
 10
-83.37850618202356
 20
13.29230535073657
 30
0.0
 40
1.053329005670823
100
AcDbArc
 50
349.3838907849668
 51
210.6381690135655
  0
ARC
  5
3F
330
17
100
AcDbEntity
  8
2D$FER
100
AcDbCircle
 10
-83.37850618202356
 20
13.29230535073657
 30
0.0
 40
2.053329005670823
100
AcDbArc
 50
349.3838907853259
 51
210.638169013567
  0
ARC
  5
40
330
17
100
AcDbEntity
  8
2D$FER
100
AcDbCircle
 10
-87.07504991570022
 20
34.98512722923078
 30
0.0
 40
4.0
100
AcDbArc
 50
320.0075581160399
 51
331.9117221497305
  0
ARC
  5
41
330
17
100
AcDbEntity
  8
2D$FER
100
AcDbCircle
 10
-88.00841575289087
 20
35.75483798019559
 30
0.0
 40
5.27505309097831
100
AcDbArc
 50
5.090175904926858
 51
69.11629689067104
  0
ARC
  5
42
330
17
100
AcDbEntity
  8
2D$FER
100
AcDbCircle
 10
-88.00841575289087
 20
35.75483798019559
 30
0.0
 40
6.27505309097831
100
AcDbArc
 50
4.277344799969843
 51
72.56255167706904
  0
ARC
  5
43
330
17
100
AcDbEntity
  8
2D$FER
100
AcDbCircle
 10
-49.96346700857976
 20
2.924585750033657
 30
0.0
 40
44.04289310597208
100
AcDbArc
 50
139.0820480018232
 51
162.0917211190517
  0
ARC
  5
44
330
17
100
AcDbEntity
  8
2D$FER
100
AcDbCircle
 10
-87.01285197099787
 20
14.41234862249257
 30
0.0
 40
5.847739646054331
100
AcDbArc
 50
179.4506147745415
 51
345.1539548943509
  0
ARC
  5
45
330
17
100
AcDbEntity
  8
2D$FER
100
AcDbCircle
 10
-87.00020899641095
 20
14.46841928881804
 30
0.0
 40
4.905874635895726
100
AcDbArc
 50
180.0
 51
341.0710536471617
  0
LINE
  5
46
330
17
100
AcDbEntity
  8
2D$FER
100
AcDbLine
 10
-85.14519605462556
 20
12.2458986900383
 30
0.0
 11
-84.28479332923598
 21
12.75551339757294
 31
0.0
  0
LINE
  5
47
330
17
100
AcDbEntity
  8
2D$FER
100
AcDbLine
 10
-86.12800562950724
 20
40.68335123274119
 30
0.0
 11
-86.12800562950724
 21
41.74151895337309
 31
0.0
  0
LINE
  5
48
330
17
100
AcDbEntity
  8
2D$FER
100
AcDbLine
 10
-91.90608363230422
 20
14.46841928881804
 30
0.0
 11
-91.90608363230422
 21
15.4675161443829
 31
0.0
  0
ARC
  5
49
330
17
100
AcDbEntity
  8
2D$FER
100
AcDbCircle
 10
-93.99012150654744
 20
37.70911573097874
 30
0.0
 40
1.365677791741039
100
AcDbArc
 50
358.6178999938238
 51
23.14664558774109
  0
LINE
  5
4A
330
17
100
AcDbEntity
  8
2D$FER
100
AcDbLine
 10
-94.3519547390024
 20
37.67617577875899
 30
0.0
 11
-92.62484102911549
 21
37.67617577875899
 31
0.0
  0
LINE
  5
4B
330
17
100
AcDbEntity
  8
2D$FER
100
AcDbLine
 10
-92.71352499454224
 20
38.24594432025151
 30
0.0
 11
-94.3519547390024
 21
37.67617577875899
 31
0.0
  0
ARC
  5
4C
330
17
100
AcDbEntity
  8
2D$FER
100
AcDbCircle
 10
-93.99758255467168
 20
38.75070512227103
 30
0.0
 40
1.365677791741039
100
AcDbArc
 50
337.9927706678482
 51
23.14664558774136
  0
ARC
  5
4D
330
17
100
AcDbEntity
  8
2D$FER
100
AcDbCircle
 10
-93.98715588120103
 20
39.79928538067179
 30
0.0
 40
1.365677791741039
100
AcDbArc
 50
337.9927706678482
 51
23.14664558774136
  0
ARC
  5
4E
330
17
100
AcDbEntity
  8
2D$FER
100
AcDbCircle
 10
-93.97672920771583
 20
40.84786563907073
 30
0.0
 40
1.365677791741039
100
AcDbArc
 50
337.9927706678482
 51
23.14664558774136
  0
ARC
  5
4F
330
17
100
AcDbEntity
  8
2D$FER
100
AcDbCircle
 10
-93.98715588120103
 20
41.89644589747513
 30
0.0
 40
1.365677791741039
100
AcDbArc
 50
337.9927706678482
 51
23.14664558774136
  0
ARC
  5
50
330
17
100
AcDbEntity
  8
2D$FER
100
AcDbCircle
 10
-93.97672920773039
 20
42.94502615586862
 30
0.0
 40
1.365677791741039
100
AcDbArc
 50
337.9927706678482
 51
23.14664558774136
  0
ARC
  5
51
330
17
100
AcDbEntity
  8
2D$FER
100
AcDbCircle
 10
-93.98715588120103
 20
43.99360641427847
 30
0.0
 40
1.365677791741039
100
AcDbArc
 50
337.9927706678482
 51
23.14664558774136
  0
ARC
  5
52
330
17
100
AcDbEntity
  8
2D$FER
100
AcDbCircle
 10
-93.97672920773039
 20
45.04218667267742
 30
0.0
 40
1.365677791741039
100
AcDbArc
 50
337.9927706678482
 51
23.14664558774136
  0
ARC
  5
53
330
17
100
AcDbEntity
  8
2D$FER
100
AcDbCircle
 10
-93.97672920773039
 20
47.13934718948258
 30
0.0
 40
1.365677791741039
100
AcDbArc
 50
337.9927706678482
 51
23.14664558774136
  0
ARC
  5
54
330
17
100
AcDbEntity
  8
2D$FER
100
AcDbCircle
 10
-93.98715588120103
 20
46.09076693108182
 30
0.0
 40
1.365677791741039
100
AcDbArc
 50
337.9927706678482
 51
23.14664558774136
  0
LINE
  5
55
330
17
100
AcDbEntity
  8
2D$FER
100
AcDbLine
 10
-92.71055936919583
 20
40.33611396994274
 30
0.0
 11
-94.32495650443889
 21
39.70517638726051
 31
0.0
  0
LINE
  5
56
330
17
100
AcDbEntity
  8
2D$FER
100
AcDbLine
 10
-92.71055936919583
 20
42.43327448674245
 30
0.0
 11
-94.32495650443889
 21
41.80233690406021
 31
0.0
  0
LINE
  5
57
330
17
100
AcDbEntity
  8
2D$FER
100
AcDbLine
 10
-92.71055936919583
 20
44.53043500354943
 30
0.0
 11
-94.32495650443889
 21
43.89949742086719
 31
0.0
  0
ARC
  5
58
330
17
100
AcDbEntity
  8
2D$FER
100
AcDbCircle
 10
-93.06921333937498
 20
45.45982934839412
 30
0.0
 40
1.365677791741039
100
AcDbArc
 50
156.8533544122589
 51
202.0072293321518
  0
ARC
  5
59
330
17
100
AcDbEntity
  8
2D$FER
100
AcDbCircle
 10
-93.06921333937498
 20
46.53348652695058
 30
0.0
 40
1.365677791741039
100
AcDbArc
 50
157.9927706679188
 51
203.1466455877413
  0
ARC
  5
5A
330
17
100
AcDbEntity
  8
2D$FER
100
AcDbCircle
 10
-93.06921333937498
 20
43.36266883159078
 30
0.0
 40
1.365677791741039
100
AcDbArc
 50
156.8533544122589
 51
202.0072293321518
  0
ARC
  5
5B
330
17
100
AcDbEntity
  8
2D$FER
100
AcDbCircle
 10
-93.06921333937498
 20
44.43632601014542
 30
0.0
 40
1.365677791741039
100
AcDbArc
 50
157.9927706679188
 51
203.1466455877413
  0
ARC
  5
5C
330
17
100
AcDbEntity
  8
2D$FER
100
AcDbCircle
 10
-93.06921333937498
 20
41.26550831478016
 30
0.0
 40
1.365677791741039
100
AcDbArc
 50
156.8533544122589
 51
202.0072293321518
  0
ARC
  5
5D
330
17
100
AcDbEntity
  8
2D$FER
100
AcDbCircle
 10
-93.06921333937498
 20
42.33916549333662
 30
0.0
 40
1.365677791741039
100
AcDbArc
 50
157.9927706679188
 51
203.1466455877413
  0
ARC
  5
5E
330
17
100
AcDbEntity
  8
2D$FER
100
AcDbCircle
 10
-93.06921333937498
 20
39.1683477979841
 30
0.0
 40
1.365677791741039
100
AcDbArc
 50
156.8533544122589
 51
202.0072293321518
  0
ARC
  5
5F
330
17
100
AcDbEntity
  8
2D$FER
100
AcDbCircle
 10
-93.06921333937498
 20
40.24200497653874
 30
0.0
 40
1.365677791741039
100
AcDbArc
 50
157.9927706679188
 51
203.1466455877413
  0
ARC
  5
60
330
17
100
AcDbEntity
  8
2D$FER
100
AcDbCircle
 10
-93.07964001284563
 20
47.58206678535498
 30
0.0
 40
1.365677791741039
100
AcDbArc
 50
176.0486106151023
 51
203.1466455877413
  0
LINE
  5
61
330
17
100
AcDbEntity
  8
2D$FER
100
AcDbLine
 10
-94.44207141612424
 20
47.67617577875899
 30
0.0
 11
-92.72098604266648
 21
47.67617577875899
 31
0.0
  0
LINE
  5
62
330
17
100
AcDbEntity
  8
2D$FER
100
AcDbLine
 10
-92.71055936919583
 20
46.62759552035459
 30
0.0
 11
-94.32495650443889
 21
45.99665793767417
 31
0.0
  0
ARC
  5
63
330
17
100
AcDbEntity
  8
2D$FER
100
AcDbCircle
 10
-93.06921333937498
 20
38.1448444597354
 30
0.0
 40
1.365677791741039
100
AcDbArc
 50
157.9927706679188
 51
200.070529209149
  0
LINE
  5
64
330
17
100
AcDbEntity
  8
2D$FER
100
AcDbLine
 10
-92.72098604266648
 20
39.2875337115438
 30
0.0
 11
-94.33538317790953
 21
38.65659612886157
 31
0.0
  0
LINE
  5
65
330
17
100
AcDbEntity
  8
2D$FER
100
AcDbLine
 10
-92.72098604266648
 20
41.38469422834714
 30
0.0
 11
-94.33538317790953
 21
40.75375664566673
 31
0.0
  0
LINE
  5
66
330
17
100
AcDbEntity
  8
2D$FER
100
AcDbLine
 10
-92.72098604266648
 20
43.48185474515049
 30
0.0
 11
-94.33538317790953
 21
42.85091716247007
 31
0.0
  0
LINE
  5
67
330
17
100
AcDbEntity
  8
2D$FER
100
AcDbLine
 10
-92.72098604266648
 20
45.57901526195565
 30
0.0
 11
-94.33538317790953
 21
44.94807767927341
 31
0.0
  0
LINE
  5
68
330
17
100
AcDbEntity
  8
2D$FER
100
AcDbLine
 10
-92.72098604266648
 20
47.67617577875899
 30
0.0
 11
-94.33538317790953
 21
47.04523819607675
 31
0.0
  0
LINE
  5
69
330
17
100
AcDbEntity
  8
2D$FER
100
AcDbLine
 10
-92.86032279592473
 20
37.67617577875899
 30
0.0
 11
-92.86032279592473
 21
16.4675161443829
 31
0.0
  0
LINE
  5
6A
330
17
100
AcDbEntity
  8
2D$FER
100
AcDbLine
 10
-94.26032279593346
 20
37.67617577875899
 30
0.0
 11
-94.26032279593346
 21
16.4675161443829
 31
0.0
  0
LINE
  5
6B
330
17
100
AcDbEntity
  8
2D$FER
100
AcDbLine
 10
-92.86032279592473
 20
15.4675161443829
 30
0.0
 11
-92.86032279592473
 21
6.499999999998181
 31
0.0
  0
LINE
  5
6C
330
17
100
AcDbEntity
  8
2D$FER
100
AcDbLine
 10
-94.26032279593346
 20
15.4675161443829
 30
0.0
 11
-94.26032279593346
 21
6.499999999998181
 31
0.0
  0
LINE
  5
6D
330
17
100
AcDbEntity
  8
2D$FER
100
AcDbLine
 10
-96.06032279592182
 20
16.4675161443829
 30
0.0
 11
-91.06032279592182
 21
16.4675161443829
 31
0.0
  0
LINE
  5
6E
330
17
100
AcDbEntity
  8
2D$FER
100
AcDbLine
 10
-96.06032279592182
 20
15.46751614438108
 30
0.0
 11
-91.06032279592182
 21
15.4675161443829
 31
0.0
  0
LINE
  5
6F
330
17
100
AcDbEntity
  8
2D$FER
100
AcDbLine
 10
-96.06032279592182
 20
16.4675161443829
 30
0.0
 11
-96.06032279592182
 21
15.46751614438108
 31
0.0
  0
LINE
  5
70
330
17
100
AcDbEntity
  8
2D$FER
100
AcDbLine
 10
-91.06032279592182
 20
16.4675161443829
 30
0.0
 11
-91.06032279592182
 21
15.4675161443829
 31
0.0
  0
ARC
  5
71
330
17
100
AcDbEntity
  8
2D$FER
100
AcDbCircle
 10
-49.9640266582137
 20
2.924617047890933
 30
0.0
 40
45.04232202274337
100
AcDbArc
 50
139.1021584816355
 51
162.1013201840838
  0
LINE
  5
72
330
17
100
AcDbEntity
  8
2D$FER
100
AcDbLine
 10
-21.06032279592182
 20
5.000000000907676
 30
0.0
 11
-21.06032279592182
 21
1.484879707200889
 31
0.0
  0
LINE
  5
73
330
17
100
AcDbEntity
  8
2D$FER
100
AcDbLine
 10
-19.66032279591309
 20
5.000000000907676
 30
0.0
 11
-19.66032279591309
 21
1.484879707200889
 31
0.0
  0
ARC
  5
74
330
17
100
AcDbEntity
  8
2D$FER
100
AcDbCircle
 10
-25.56402665821952
 20
2.924617047890933
 30
0.0
 40
45.04232202274337
100
AcDbArc
 50
139.1021584816355
 51
162.1013201840838
  0
ARC
  5
75
330
17
100
AcDbEntity
  8
2D$FER
100
AcDbCircle
 10
-62.61285197100369
 20
14.41234862249257
 30
0.0
 40
5.847739646054331
100
AcDbArc
 50
179.4506147745415
 51
345.1539548943509
  0
ARC
  5
76
330
17
100
AcDbEntity
  8
2D$FER
100
AcDbCircle
 10
-71.82138631484122
 20
37.02605951418445
 30
0.0
 40
8.334741264599202
100
AcDbArc
 50
192.494593220482
 51
208.0882778503054
  0
ARC
  5
77
330
17
100
AcDbEntity
  8
2D$FER
100
AcDbCircle
 10
-90.8992592770228
 20
37.02605951418445
 30
0.0
 40
8.334741264599202
100
AcDbArc
 50
331.9117221496945
 51
347.505406779518
  0
LINE
  5
78
330
17
100
AcDbEntity
  8
2D$FER
100
AcDbLine
 10
-76.59263996234222
 20
40.68335123274119
 30
0.0
 11
-76.59263996234222
 21
41.74151895337309
 31
0.0
  0
ARC
  5
79
330
17
100
AcDbEntity
  8
2D$FER
100
AcDbCircle
 10
-74.71222983895859
 20
35.75483798019559
 30
0.0
 40
6.27505309097831
100
AcDbArc
 50
107.437448322931
 51
175.7226552000302
  0
ARC
  5
7A
330
17
100
AcDbEntity
  8
2D$FER
100
AcDbCircle
 10
-74.71222983895859
 20
35.75483798019559
 30
0.0
 40
5.27505309097831
100
AcDbArc
 50
110.883703109329
 51
174.9098240950731
  0
LINE
  5
7B
330
17
100
AcDbEntity
  8
2D$FER
100
AcDbLine
 10
-83.17844431738195
 20
36.22285921411822
 30
0.0
 11
-79.54220127448207
 21
36.22285921411822
 31
0.0
  0
LINE
  5
7C
330
17
100
AcDbEntity
  8
2D$FER
100
AcDbLine
 10
-83.17844431738195
 20
35.22285921411822
 30
0.0
 11
-79.54220127448207
 21
35.22285921411822
 31
0.0
  0
LINE
  5
7D
330
17
100
AcDbEntity
  8
2D$FER
100
AcDbLine
 10
-83.17844431738195
 20
36.22285921412004
 30
0.0
 11
-83.17844431738195
 21
35.22285921411822
 31
0.0
  0
LINE
  5
7E
330
17
100
AcDbEntity
  8
2D$FER
100
AcDbLine
 10
-79.54220127448207
 20
36.22285921411822
 30
0.0
 11
-79.54220127448207
 21
35.22285921411822
 31
0.0
  0
ARC
  5
7F
330
17
100
AcDbEntity
  8
2D$FER
100
AcDbCircle
 10
-69.59012150653871
 20
37.70911573097874
 30
0.0
 40
1.365677791741039
100
AcDbArc
 50
358.6178999938238
 51
23.14664558774109
  0
LINE
  5
80
330
17
100
AcDbEntity
  8
2D$FER
100
AcDbLine
 10
-69.95195473900822
 20
37.67617577875717
 30
0.0
 11
-68.22484102912131
 21
37.67617577875717
 31
0.0
  0
LINE
  5
81
330
17
100
AcDbEntity
  8
2D$FER
100
AcDbLine
 10
-68.31352499453351
 20
38.24594432024969
 30
0.0
 11
-69.95195473900822
 21
37.67617577875717
 31
0.0
  0
ARC
  5
82
330
17
100
AcDbEntity
  8
2D$FER
100
AcDbCircle
 10
-69.5975825546775
 20
38.75070512227103
 30
0.0
 40
1.365677791741039
100
AcDbArc
 50
337.9927706678482
 51
23.14664558774136
  0
ARC
  5
83
330
17
100
AcDbEntity
  8
2D$FER
100
AcDbCircle
 10
-69.5871558811923
 20
39.79928538066997
 30
0.0
 40
1.365677791741039
100
AcDbArc
 50
337.9927706678482
 51
23.14664558774136
  0
ARC
  5
84
330
17
100
AcDbEntity
  8
2D$FER
100
AcDbCircle
 10
-69.57672920772166
 20
40.84786563906891
 30
0.0
 40
1.365677791741039
100
AcDbArc
 50
337.9927706678482
 51
23.14664558774136
  0
ARC
  5
85
330
17
100
AcDbEntity
  8
2D$FER
100
AcDbCircle
 10
-69.5871558811923
 20
41.89644589747331
 30
0.0
 40
1.365677791741039
100
AcDbArc
 50
337.9927706678482
 51
23.14664558774136
  0
ARC
  5
86
330
17
100
AcDbEntity
  8
2D$FER
100
AcDbCircle
 10
-69.57672920772166
 20
42.94502615586862
 30
0.0
 40
1.365677791741039
100
AcDbArc
 50
337.9927706678482
 51
23.14664558774136
  0
ARC
  5
87
330
17
100
AcDbEntity
  8
2D$FER
100
AcDbCircle
 10
-69.5871558811923
 20
43.99360641427847
 30
0.0
 40
1.365677791741039
100
AcDbArc
 50
337.9927706678482
 51
23.14664558774136
  0
ARC
  5
88
330
17
100
AcDbEntity
  8
2D$FER
100
AcDbCircle
 10
-69.57672920772166
 20
45.0421866726756
 30
0.0
 40
1.365677791741039
100
AcDbArc
 50
337.9927706678482
 51
23.14664558774136
  0
ARC
  5
89
330
17
100
AcDbEntity
  8
2D$FER
100
AcDbCircle
 10
-69.57672920772166
 20
47.13934718948258
 30
0.0
 40
1.365677791741039
100
AcDbArc
 50
337.9927706678482
 51
23.14664558774136
  0
ARC
  5
8A
330
17
100
AcDbEntity
  8
2D$FER
100
AcDbCircle
 10
-69.5871558811923
 20
46.09076693108182
 30
0.0
 40
1.365677791741039
100
AcDbArc
 50
337.9927706678482
 51
23.14664558774136
  0
LINE
  5
8B
330
17
100
AcDbEntity
  8
2D$FER
100
AcDbLine
 10
-68.3105593691871
 20
40.33611396994274
 30
0.0
 11
-69.92495650443016
 21
39.70517638726051
 31
0.0
  0
LINE
  5
8C
330
17
100
AcDbEntity
  8
2D$FER
100
AcDbLine
 10
-68.31055936920166
 20
42.43327448674063
 30
0.0
 11
-69.92495650443016
 21
41.80233690405839
 31
0.0
  0
LINE
  5
8D
330
17
100
AcDbEntity
  8
2D$FER
100
AcDbLine
 10
-68.31055936920166
 20
44.53043500354943
 30
0.0
 11
-69.92495650443016
 21
43.89949742086719
 31
0.0
  0
ARC
  5
8E
330
17
100
AcDbEntity
  8
2D$FER
100
AcDbCircle
 10
-68.6692133393808
 20
45.45982934839412
 30
0.0
 40
1.365677791741039
100
AcDbArc
 50
156.8533544122589
 51
202.0072293321518
  0
ARC
  5
8F
330
17
100
AcDbEntity
  8
2D$FER
100
AcDbCircle
 10
-68.6692133393808
 20
46.53348652694876
 30
0.0
 40
1.365677791741039
100
AcDbArc
 50
157.9927706679188
 51
203.1466455877413
  0
ARC
  5
90
330
17
100
AcDbEntity
  8
2D$FER
100
AcDbCircle
 10
-68.6692133393808
 20
43.36266883158896
 30
0.0
 40
1.365677791741039
100
AcDbArc
 50
156.8533544122589
 51
202.0072293321518
  0
ARC
  5
91
330
17
100
AcDbEntity
  8
2D$FER
100
AcDbCircle
 10
-68.6692133393808
 20
44.43632601014542
 30
0.0
 40
1.365677791741039
100
AcDbArc
 50
157.9927706679188
 51
203.1466455877413
  0
ARC
  5
92
330
17
100
AcDbEntity
  8
2D$FER
100
AcDbCircle
 10
-68.6692133393808
 20
41.26550831478016
 30
0.0
 40
1.365677791741039
100
AcDbArc
 50
156.8533544122589
 51
202.0072293321518
  0
ARC
  5
93
330
17
100
AcDbEntity
  8
2D$FER
100
AcDbCircle
 10
-68.6692133393808
 20
42.3391654933348
 30
0.0
 40
1.365677791741039
100
AcDbArc
 50
157.9927706679188
 51
203.1466455877413
  0
ARC
  5
94
330
17
100
AcDbEntity
  8
2D$FER
100
AcDbCircle
 10
-68.6692133393808
 20
39.16834779798228
 30
0.0
 40
1.365677791741039
100
AcDbArc
 50
156.8533544122589
 51
202.0072293321518
  0
ARC
  5
95
330
17
100
AcDbEntity
  8
2D$FER
100
AcDbCircle
 10
-68.6692133393808
 20
40.24200497653874
 30
0.0
 40
1.365677791741039
100
AcDbArc
 50
157.9927706679188
 51
203.1466455877413
  0
ARC
  5
96
330
17
100
AcDbEntity
  8
2D$FER
100
AcDbCircle
 10
-68.67964001285145
 20
47.58206678535498
 30
0.0
 40
1.365677791741039
100
AcDbArc
 50
176.0486106151023
 51
203.1466455877413
  0
LINE
  5
97
330
17
100
AcDbEntity
  8
2D$FER
100
AcDbLine
 10
-70.0420714161155
 20
47.67617577875717
 30
0.0
 11
-68.3209860426723
 21
47.67617577875717
 31
0.0
  0
LINE
  5
98
330
17
100
AcDbEntity
  8
2D$FER
100
AcDbLine
 10
-68.31055936920166
 20
46.62759552035459
 30
0.0
 11
-69.92495650443016
 21
45.99665793767235
 31
0.0
  0
ARC
  5
99
330
17
100
AcDbEntity
  8
2D$FER
100
AcDbCircle
 10
-68.6692133393808
 20
38.1448444597354
 30
0.0
 40
1.365677791741039
100
AcDbArc
 50
157.9927706679188
 51
200.070529209149
  0
LINE
  5
9A
330
17
100
AcDbEntity
  8
2D$FER
100
AcDbLine
 10
-68.3209860426723
 20
39.28753371154198
 30
0.0
 11
-69.9353831779008
 21
38.65659612886157
 31
0.0
  0
LINE
  5
9B
330
17
100
AcDbEntity
  8
2D$FER
100
AcDbLine
 10
-68.3209860426723
 20
41.38469422834714
 30
0.0
 11
-69.9353831779008
 21
40.75375664566491
 31
0.0
  0
LINE
  5
9C
330
17
100
AcDbEntity
  8
2D$FER
100
AcDbLine
 10
-68.3209860426723
 20
43.48185474515049
 30
0.0
 11
-69.93538317791536
 21
42.85091716246825
 31
0.0
  0
LINE
  5
9D
330
17
100
AcDbEntity
  8
2D$FER
100
AcDbLine
 10
-68.3209860426723
 20
45.57901526195383
 30
0.0
 11
-69.93538317791536
 21
44.94807767927159
 31
0.0
  0
LINE
  5
9E
330
17
100
AcDbEntity
  8
2D$FER
100
AcDbLine
 10
-68.3209860426723
 20
47.67617577875717
 30
0.0
 11
-69.93538317791536
 21
47.04523819607675
 31
0.0
  0
ARC
  5
9F
330
17
100
AcDbEntity
  8
2D$FER
100
AcDbCircle
 10
-112.7566189336503
 20
2.92461704788002
 30
0.0
 40
45.04232202275369
100
AcDbArc
 50
17.89867981593605
 51
40.89784151835234
  0
ARC
  5
A0
330
17
100
AcDbEntity
  8
2D$FER
100
AcDbCircle
 10
-112.7571785832843
 20
2.924585750022743
 30
0.0
 40
44.04289310598085
100
AcDbArc
 50
17.90827888096403
 51
40.9179519981875
  0
LINE
  5
A1
330
17
100
AcDbEntity
  8
2D$FER
100
AcDbLine
 10
-68.46032279593055
 20
37.67617577875717
 30
0.0
 11
-68.46032279593055
 21
16.4675161443829
 31
0.0
  0
LINE
  5
A2
330
17
100
AcDbEntity
  8
2D$FER
100
AcDbLine
 10
-69.86032279592473
 20
37.67617577875717
 30
0.0
 11
-69.86032279592473
 21
16.4675161443829
 31
0.0
  0
LINE
  5
A3
330
17
100
AcDbEntity
  8
2D$FER
100
AcDbLine
 10
-68.46032279593055
 20
15.46751614438108
 30
0.0
 11
-68.46032279593055
 21
6.499999999998181
 31
0.0
  0
LINE
  5
A4
330
17
100
AcDbEntity
  8
2D$FER
100
AcDbLine
 10
-69.86032279592473
 20
15.46751614438108
 30
0.0
 11
-69.86032279592473
 21
6.499999999998181
 31
0.0
  0
ARC
  5
A5
330
17
100
AcDbEntity
  8
2D$FER
100
AcDbCircle
 10
-79.34213940984046
 20
13.29230535073657
 30
0.0
 40
2.053329005670823
100
AcDbArc
 50
329.3618309864329
 51
190.616109214674
  0
ARC
  5
A6
330
17
100
AcDbEntity
  8
2D$FER
100
AcDbCircle
 10
-79.34213940984046
 20
13.29230535073657
 30
0.0
 40
1.053329005670823
100
AcDbArc
 50
329.3618309864346
 51
190.6161092150333
  0
LINE
  5
A7
330
17
100
AcDbEntity
  8
2D$FER
100
AcDbLine
 10
-77.57544953723846
 20
12.2458986900383
 30
0.0
 11
-78.43585226262803
 21
12.75551339757294
 31
0.0
  0
LINE
  5
A8
330
17
100
AcDbEntity
  8
2D$FER
100
AcDbLine
 10
-71.66032279592764
 20
16.4675161443829
 30
0.0
 11
-66.66032279592764
 21
16.4675161443829
 31
0.0
  0
LINE
  5
A9
330
17
100
AcDbEntity
  8
2D$FER
100
AcDbLine
 10
-71.66032279592764
 20
15.46751614438108
 30
0.0
 11
-66.66032279592764
 21
15.4675161443829
 31
0.0
  0
LINE
  5
AA
330
17
100
AcDbEntity
  8
2D$FER
100
AcDbLine
 10
-71.66032279592764
 20
16.4675161443829
 30
0.0
 11
-71.66032279592764
 21
15.46751614438108
 31
0.0
  0
ARC
  5
AB
330
17
100
AcDbEntity
  8
2D$FER
100
AcDbCircle
 10
-75.72043659545307
 20
14.46841928881804
 30
0.0
 40
4.905874635895726
100
AcDbArc
 50
198.9289463528383
 51
2.07e-14
  0
ARC
  5
AC
330
17
100
AcDbEntity
  8
2D$FER
100
AcDbCircle
 10
-75.70779362086614
 20
14.41234862249257
 30
0.0
 40
5.847739646054331
100
AcDbArc
 50
194.846045105649
 51
0.5493852254584264
  0
LINE
  5
AD
330
17
100
AcDbEntity
  8
2D$FER
100
AcDbLine
 10
-70.8145619595598
 20
14.46841928881804
 30
0.0
 11
-70.8145619595598
 21
15.4675161443829
 31
0.0
  0
ARC
  5
AE
330
17
100
AcDbEntity
  8
2D$FER
100
AcDbCircle
 10
-71.82138631484122
 20
37.02605951418445
 30
0.0
 40
9.334741264599202
100
AcDbArc
 50
191.1378919840601
 51
208.0882778503066
  0
ARC
  5
AF
330
17
100
AcDbEntity
  8
2D$FER
100
AcDbCircle
 10
-75.6455956761638
 20
34.98512722923078
 30
0.0
 40
4.0
100
AcDbArc
 50
208.0882778502695
 51
219.9924418839601
  0
ARC
  5
B0
330
17
100
AcDbEntity
  8
2D$FER
100
AcDbCircle
 10
-75.6455956761638
 20
34.98512722923078
 30
0.0
 40
5.0
100
AcDbArc
 50
208.0882778502603
 51
219.9924418839682
  0
ARC
  5
B1
330
17
100
AcDbEntity
  8
2D$FER
100
AcDbCircle
 10
-87.07504991570022
 20
34.98512722923078
 30
0.0
 40
5.0
100
AcDbArc
 50
320.0075581160319
 51
331.9117221497398
  0
ARC
  5
B2
330
17
100
AcDbEntity
  8
2D$FER
100
AcDbCircle
 10
-90.8992592770228
 20
37.02605951418445
 30
0.0
 40
9.334741264599202
100
AcDbArc
 50
331.9117221496934
 51
348.8621080143373
  0
LINE
  5
B3
330
17
100
AcDbEntity
  8
2D$FER
100
AcDbLine
 10
-81.36032279592473
 20
27.17119423907752
 30
0.0
 11
-80.52704461252142
 21
29.4299512556554
 31
0.0
  0
LINE
  5
B4
330
17
100
AcDbEntity
  8
2D$FER
100
AcDbLine
 10
-81.36032279592473
 20
27.17119423907752
 30
0.0
 11
-82.28024397767149
 21
29.4299512556554
 31
0.0
  0
LINE
  5
B5
330
17
100
AcDbEntity
  8
2D$FER
100
AcDbLine
 10
-82.28024397767149
 20
29.4299512556554
 30
0.0
 11
-81.63447753025685
 21
29.4299512556554
 31
0.0
  0
LINE
  5
B6
330
17
100
AcDbEntity
  8
2D$FER
100
AcDbLine
 10
-81.08616806160717
 20
29.4299512556554
 30
0.0
 11
-80.52704461252142
 21
29.4299512556554
 31
0.0
  0
LINE
  5
B7
330
17
100
AcDbEntity
  8
2D$FER
100
AcDbLine
 10
-81.08616806160717
 20
35.22285921411822
 30
0.0
 11
-81.08616806160717
 21
29.4299512556554
 31
0.0
  0
LINE
  5
B8
330
17
100
AcDbEntity
  8
2D$FER
100
AcDbLine
 10
-81.63447753025685
 20
35.22285921411822
 30
0.0
 11
-81.63447753025685
 21
29.4299512556554
 31
0.0
  0
ARC
  5
B9
330
17
100
AcDbEntity
  8
2D$FER
100
AcDbCircle
 10
-47.42138631484704
 20
37.02605951418445
 30
0.0
 40
8.334741264599202
100
AcDbArc
 50
192.494593220482
 51
208.0882778503054
  0
ARC
  5
BA
330
17
100
AcDbEntity
  8
2D$FER
100
AcDbCircle
 10
-66.49925927701406
 20
37.02605951418445
 30
0.0
 40
8.334741264599202
100
AcDbArc
 50
331.9117221496945
 51
347.505406779518
  0
LINE
  5
BB
330
17
100
AcDbEntity
  8
2D$FER
100
AcDbLine
 10
-61.72800562951306
 20
40.68335123274119
 30
0.0
 11
-61.72800562951306
 21
41.74151895337309
 31
0.0
  0
LINE
  5
BC
330
17
100
AcDbEntity
  8
2D$FER
100
AcDbLine
 10
-52.19263996234804
 20
40.68335123274119
 30
0.0
 11
-52.19263996234804
 21
41.74151895337309
 31
0.0
  0
ARC
  5
BD
330
17
100
AcDbEntity
  8
2D$FER
100
AcDbCircle
 10
-63.60841575289669
 20
35.75483798019559
 30
0.0
 40
5.27505309097831
100
AcDbArc
 50
5.090175904926858
 51
69.11629689067095
  0
ARC
  5
BE
330
17
100
AcDbEntity
  8
2D$FER
100
AcDbCircle
 10
-63.60841575289669
 20
35.75483798019559
 30
0.0
 40
6.27505309097831
100
AcDbArc
 50
4.277344799969848
 51
72.56255167706911
  0
ARC
  5
BF
330
17
100
AcDbEntity
  8
2D$FER
100
AcDbCircle
 10
-50.31222983896441
 20
35.75483798019559
 30
0.0
 40
6.27505309097831
100
AcDbArc
 50
107.437448322931
 51
175.7226552000302
  0
ARC
  5
C0
330
17
100
AcDbEntity
  8
2D$FER
100
AcDbCircle
 10
-50.31222983896441
 20
35.75483798019559
 30
0.0
 40
5.27505309097831
100
AcDbArc
 50
110.883703109329
 51
174.9098240950731
  0
LINE
  5
C1
330
17
100
AcDbEntity
  8
2D$FER
100
AcDbLine
 10
-58.77844431737321
 20
36.22285921411822
 30
0.0
 11
-55.14220127448789
 21
36.22285921411822
 31
0.0
  0
LINE
  5
C2
330
17
100
AcDbEntity
  8
2D$FER
100
AcDbLine
 10
-58.77844431737321
 20
35.22285921411822
 30
0.0
 11
-55.14220127448789
 21
35.22285921411822
 31
0.0
  0
LINE
  5
C3
330
17
100
AcDbEntity
  8
2D$FER
100
AcDbLine
 10
-58.77844431737321
 20
36.22285921412004
 30
0.0
 11
-58.77844431737321
 21
35.22285921411822
 31
0.0
  0
LINE
  5
C4
330
17
100
AcDbEntity
  8
2D$FER
100
AcDbLine
 10
-55.14220127448789
 20
36.22285921411822
 30
0.0
 11
-55.14220127448789
 21
35.22285921411822
 31
0.0
  0
ARC
  5
C5
330
17
100
AcDbEntity
  8
2D$FER
100
AcDbCircle
 10
-45.19012150654453
 20
37.70911573097874
 30
0.0
 40
1.365677791741039
100
AcDbArc
 50
358.6178999938238
 51
23.14664558774109
  0
LINE
  5
C6
330
17
100
AcDbEntity
  8
2D$FER
100
AcDbLine
 10
-45.55195473901404
 20
37.67617577875717
 30
0.0
 11
-43.82484102911258
 21
37.67617577875717
 31
0.0
  0
LINE
  5
C7
330
17
100
AcDbEntity
  8
2D$FER
100
AcDbLine
 10
-43.91352499453933
 20
38.24594432024969
 30
0.0
 11
-45.55195473901404
 21
37.67617577875717
 31
0.0
  0
ARC
  5
C8
330
17
100
AcDbEntity
  8
2D$FER
100
AcDbCircle
 10
-45.19758255466877
 20
38.75070512227103
 30
0.0
 40
1.365677791741039
100
AcDbArc
 50
337.992770667848
 51
23.1466455877412
  0
ARC
  5
C9
330
17
100
AcDbEntity
  8
2D$FER
100
AcDbCircle
 10
-45.18715588119812
 20
39.79928538066997
 30
0.0
 40
1.365677791741039
100
AcDbArc
 50
337.992770667848
 51
23.1466455877412
  0
ARC
  5
CA
330
17
100
AcDbEntity
  8
2D$FER
100
AcDbCircle
 10
-45.17672920772748
 20
40.84786563906891
 30
0.0
 40
1.365677791741039
100
AcDbArc
 50
337.992770667848
 51
23.1466455877412
  0
ARC
  5
CB
330
17
100
AcDbEntity
  8
2D$FER
100
AcDbCircle
 10
-45.18715588119812
 20
41.89644589747331
 30
0.0
 40
1.365677791741039
100
AcDbArc
 50
337.992770667848
 51
23.1466455877412
  0
ARC
  5
CC
330
17
100
AcDbEntity
  8
2D$FER
100
AcDbCircle
 10
-45.17672920772748
 20
42.94502615586862
 30
0.0
 40
1.365677791741039
100
AcDbArc
 50
337.992770667848
 51
23.1466455877412
  0
ARC
  5
CD
330
17
100
AcDbEntity
  8
2D$FER
100
AcDbCircle
 10
-45.18715588119812
 20
43.99360641427847
 30
0.0
 40
1.365677791741039
100
AcDbArc
 50
337.992770667848
 51
23.1466455877412
  0
ARC
  5
CE
330
17
100
AcDbEntity
  8
2D$FER
100
AcDbCircle
 10
-45.17672920772748
 20
45.0421866726756
 30
0.0
 40
1.365677791741039
100
AcDbArc
 50
337.992770667848
 51
23.1466455877412
  0
ARC
  5
CF
330
17
100
AcDbEntity
  8
2D$FER
100
AcDbCircle
 10
-45.17672920772748
 20
47.13934718948258
 30
0.0
 40
1.365677791741039
100
AcDbArc
 50
337.992770667848
 51
23.1466455877412
  0
ARC
  5
D0
330
17
100
AcDbEntity
  8
2D$FER
100
AcDbCircle
 10
-45.18715588119812
 20
46.09076693108182
 30
0.0
 40
1.365677791741039
100
AcDbArc
 50
337.992770667848
 51
23.1466455877412
  0
LINE
  5
D1
330
17
100
AcDbEntity
  8
2D$FER
100
AcDbLine
 10
-43.91055936919292
 20
40.33611396994274
 30
0.0
 11
-45.52495650443598
 21
39.70517638726051
 31
0.0
  0
LINE
  5
D2
330
17
100
AcDbEntity
  8
2D$FER
100
AcDbLine
 10
-43.91055936919292
 20
42.43327448674063
 30
0.0
 11
-45.52495650443598
 21
41.80233690405839
 31
0.0
  0
LINE
  5
D3
330
17
100
AcDbEntity
  8
2D$FER
100
AcDbLine
 10
-43.91055936919292
 20
44.53043500354943
 30
0.0
 11
-45.52495650443598
 21
43.89949742086719
 31
0.0
  0
ARC
  5
D4
330
17
100
AcDbEntity
  8
2D$FER
100
AcDbCircle
 10
-44.26921333938662
 20
45.45982934839412
 30
0.0
 40
1.365677791741039
100
AcDbArc
 50
156.8533544122588
 51
202.0072293321519
  0
ARC
  5
D5
330
17
100
AcDbEntity
  8
2D$FER
100
AcDbCircle
 10
-44.26921333938662
 20
46.53348652694876
 30
0.0
 40
1.365677791741039
100
AcDbArc
 50
157.9927706679188
 51
203.1466455877411
  0
ARC
  5
D6
330
17
100
AcDbEntity
  8
2D$FER
100
AcDbCircle
 10
-44.26921333938662
 20
43.36266883158896
 30
0.0
 40
1.365677791741039
100
AcDbArc
 50
156.8533544122588
 51
202.0072293321519
  0
ARC
  5
D7
330
17
100
AcDbEntity
  8
2D$FER
100
AcDbCircle
 10
-44.26921333938662
 20
44.43632601014542
 30
0.0
 40
1.365677791741039
100
AcDbArc
 50
157.9927706679188
 51
203.1466455877411
  0
ARC
  5
D8
330
17
100
AcDbEntity
  8
2D$FER
100
AcDbCircle
 10
-44.26921333938662
 20
41.26550831478016
 30
0.0
 40
1.365677791741039
100
AcDbArc
 50
156.8533544122588
 51
202.0072293321519
  0
ARC
  5
D9
330
17
100
AcDbEntity
  8
2D$FER
100
AcDbCircle
 10
-44.26921333938662
 20
42.3391654933348
 30
0.0
 40
1.365677791741039
100
AcDbArc
 50
157.9927706679188
 51
203.1466455877411
  0
ARC
  5
DA
330
17
100
AcDbEntity
  8
2D$FER
100
AcDbCircle
 10
-44.26921333937207
 20
39.16834779798228
 30
0.0
 40
1.365677791741039
100
AcDbArc
 50
156.8533544122588
 51
202.0072293321519
  0
ARC
  5
DB
330
17
100
AcDbEntity
  8
2D$FER
100
AcDbCircle
 10
-44.26921333937207
 20
40.24200497653874
 30
0.0
 40
1.365677791741039
100
AcDbArc
 50
157.9927706679188
 51
203.1466455877411
  0
ARC
  5
DC
330
17
100
AcDbEntity
  8
2D$FER
100
AcDbCircle
 10
-44.27964001285727
 20
47.58206678535498
 30
0.0
 40
1.365677791741039
100
AcDbArc
 50
176.0486106151023
 51
203.1466455877411
  0
LINE
  5
DD
330
17
100
AcDbEntity
  8
2D$FER
100
AcDbLine
 10
-45.64207141612133
 20
47.67617577875717
 30
0.0
 11
-43.92098604266357
 21
47.67617577875717
 31
0.0
  0
LINE
  5
DE
330
17
100
AcDbEntity
  8
2D$FER
100
AcDbLine
 10
-43.91055936919292
 20
46.62759552035459
 30
0.0
 11
-45.52495650443598
 21
45.99665793767235
 31
0.0
  0
ARC
  5
DF
330
17
100
AcDbEntity
  8
2D$FER
100
AcDbCircle
 10
-44.26921333937207
 20
38.1448444597354
 30
0.0
 40
1.365677791741039
100
AcDbArc
 50
157.9927706679188
 51
200.0705292091488
  0
LINE
  5
E0
330
17
100
AcDbEntity
  8
2D$FER
100
AcDbLine
 10
-43.92098604266357
 20
39.28753371154198
 30
0.0
 11
-45.53538317790662
 21
38.65659612886157
 31
0.0
  0
LINE
  5
E1
330
17
100
AcDbEntity
  8
2D$FER
100
AcDbLine
 10
-43.92098604266357
 20
41.38469422834714
 30
0.0
 11
-45.53538317790662
 21
40.75375664566491
 31
0.0
  0
LINE
  5
E2
330
17
100
AcDbEntity
  8
2D$FER
100
AcDbLine
 10
-43.92098604266357
 20
43.48185474515049
 30
0.0
 11
-45.53538317790662
 21
42.85091716246825
 31
0.0
  0
LINE
  5
E3
330
17
100
AcDbEntity
  8
2D$FER
100
AcDbLine
 10
-43.92098604266357
 20
45.57901526195383
 30
0.0
 11
-45.53538317790662
 21
44.94807767927159
 31
0.0
  0
LINE
  5
E4
330
17
100
AcDbEntity
  8
2D$FER
100
AcDbLine
 10
-43.92098604266357
 20
47.67617577875717
 30
0.0
 11
-45.53538317790662
 21
47.04523819607675
 31
0.0
  0
ARC
  5
E5
330
17
100
AcDbEntity
  8
2D$FER
100
AcDbCircle
 10
-88.35661893365614
 20
2.92461704788002
 30
0.0
 40
45.04232202275369
100
AcDbArc
 50
17.89867981593605
 51
40.89784151835234
  0
ARC
  5
E6
330
17
100
AcDbEntity
  8
2D$FER
100
AcDbCircle
 10
-25.56346700858558
 20
2.924585750033657
 30
0.0
 40
44.04289310597208
100
AcDbArc
 50
139.0820480018232
 51
162.0917211190517
  0
ARC
  5
E7
330
17
100
AcDbEntity
  8
2D$FER
100
AcDbCircle
 10
-88.35717858329008
 20
2.924585750022743
 30
0.0
 40
44.04289310598085
100
AcDbArc
 50
17.90827888096404
 51
40.9179519981875
  0
LINE
  5
E8
330
17
100
AcDbEntity
  8
2D$FER
100
AcDbLine
 10
-44.06032279593637
 20
37.67617577875717
 30
0.0
 11
-44.06032279593637
 21
16.4675161443829
 31
0.0
  0
LINE
  5
E9
330
17
100
AcDbEntity
  8
2D$FER
100
AcDbLine
 10
-45.46032279593055
 20
37.67617577875717
 30
0.0
 11
-45.46032279593055
 21
16.4675161443829
 31
0.0
  0
LINE
  5
EA
330
17
100
AcDbEntity
  8
2D$FER
100
AcDbLine
 10
-44.06032279593637
 20
15.46751614438108
 30
0.0
 11
-44.06032279593637
 21
6.499999999998181
 31
0.0
  0
LINE
  5
EB
330
17
100
AcDbEntity
  8
2D$FER
100
AcDbLine
 10
-45.46032279593055
 20
15.46751614438108
 30
0.0
 11
-45.46032279593055
 21
6.499999999998181
 31
0.0
  0
ARC
  5
EC
330
17
100
AcDbEntity
  8
2D$FER
100
AcDbCircle
 10
-54.94213940984628
 20
13.29230535073657
 30
0.0
 40
2.053329005670823
100
AcDbArc
 50
329.3618309864331
 51
190.6161092146742
  0
ARC
  5
ED
330
17
100
AcDbEntity
  8
2D$FER
100
AcDbCircle
 10
-54.94213940984628
 20
13.29230535073657
 30
0.0
 40
1.053329005670823
100
AcDbArc
 50
329.3618309864342
 51
190.6161092150331
  0
LINE
  5
EE
330
17
100
AcDbEntity
  8
2D$FER
100
AcDbLine
 10
-53.17544953722972
 20
12.2458986900383
 30
0.0
 11
-54.0358522626193
 21
12.75551339757294
 31
0.0
  0
ARC
  5
EF
330
17
100
AcDbEntity
  8
2D$FER
100
AcDbCircle
 10
-62.60020899640222
 20
14.46841928881804
 30
0.0
 40
4.905874635895726
100
AcDbArc
 50
180.0
 51
341.0710536471617
  0
LINE
  5
F0
330
17
100
AcDbEntity
  8
2D$FER
100
AcDbLine
 10
-60.74519605463138
 20
12.2458986900383
 30
0.0
 11
-59.88479332922725
 21
12.75551339757294
 31
0.0
  0
ARC
  5
F1
330
17
100
AcDbEntity
  8
2D$FER
100
AcDbCircle
 10
-58.97850618201483
 20
13.29230535073657
 30
0.0
 40
1.053329005670823
100
AcDbArc
 50
349.3838907849668
 51
210.6381690135654
  0
ARC
  5
F2
330
17
100
AcDbEntity
  8
2D$FER
100
AcDbCircle
 10
-58.97850618201483
 20
13.29230535073657
 30
0.0
 40
2.053329005670823
100
AcDbArc
 50
349.3838907853258
 51
210.6381690135669
  0
LINE
  5
F3
330
17
100
AcDbEntity
  8
2D$FER
100
AcDbLine
 10
-47.26032279593346
 20
16.4675161443829
 30
0.0
 11
-42.26032279593346
 21
16.4675161443829
 31
0.0
  0
LINE
  5
F4
330
17
100
AcDbEntity
  8
2D$FER
100
AcDbLine
 10
-47.26032279593346
 20
15.46751614438108
 30
0.0
 11
-42.26032279593346
 21
15.4675161443829
 31
0.0
  0
LINE
  5
F5
330
17
100
AcDbEntity
  8
2D$FER
100
AcDbLine
 10
-47.26032279593346
 20
16.4675161443829
 30
0.0
 11
-47.26032279593346
 21
15.46751614438108
 31
0.0
  0
LINE
  5
F6
330
17
100
AcDbEntity
  8
2D$FER
100
AcDbLine
 10
-42.26032279593346
 20
16.4675161443829
 30
0.0
 11
-42.26032279593346
 21
15.4675161443829
 31
0.0
  0
ARC
  5
F7
330
17
100
AcDbEntity
  8
2D$FER
100
AcDbCircle
 10
-51.32043659545889
 20
14.46841928881804
 30
0.0
 40
4.905874635895726
100
AcDbArc
 50
198.9289463528383
 51
0.0
  0
ARC
  5
F8
330
17
100
AcDbEntity
  8
2D$FER
100
AcDbCircle
 10
-51.30779362085741
 20
14.41234862249257
 30
0.0
 40
5.847739646054331
100
AcDbArc
 50
194.846045105649
 51
0.5493852254584258
  0
LINE
  5
F9
330
17
100
AcDbEntity
  8
2D$FER
100
AcDbLine
 10
-46.41456195956562
 20
14.46841928881804
 30
0.0
 11
-46.41456195956562
 21
15.4675161443829
 31
0.0
  0
ARC
  5
FA
330
17
100
AcDbEntity
  8
2D$FER
100
AcDbCircle
 10
-47.42138631484704
 20
37.02605951418445
 30
0.0
 40
9.334741264599202
100
AcDbArc
 50
191.1378919840601
 51
208.0882778503066
  0
ARC
  5
FB
330
17
100
AcDbEntity
  8
2D$FER
100
AcDbCircle
 10
-51.24559567616961
 20
34.98512722923078
 30
0.0
 40
4.0
100
AcDbArc
 50
208.0882778502695
 51
219.9924418839601
  0
ARC
  5
FC
330
17
100
AcDbEntity
  8
2D$FER
100
AcDbCircle
 10
-51.24559567616961
 20
34.98512722923078
 30
0.0
 40
5.0
100
AcDbArc
 50
208.0882778502603
 51
219.9924418839682
  0
ARC
  5
FD
330
17
100
AcDbEntity
  8
2D$FER
100
AcDbCircle
 10
-62.67504991569149
 20
34.98512722923078
 30
0.0
 40
5.0
100
AcDbArc
 50
320.0075581160319
 51
331.9117221497397
  0
ARC
  5
FE
330
17
100
AcDbEntity
  8
2D$FER
100
AcDbCircle
 10
-62.67504991569149
 20
34.98512722923078
 30
0.0
 40
4.0
100
AcDbArc
 50
320.0075581160399
 51
331.9117221497305
  0
ARC
  5
FF
330
17
100
AcDbEntity
  8
2D$FER
100
AcDbCircle
 10
-66.49925927701406
 20
37.02605951418445
 30
0.0
 40
9.334741264599202
100
AcDbArc
 50
331.9117221496934
 51
348.8621080143373
  0
LINE
  5
100
330
17
100
AcDbEntity
  8
2D$FER
100
AcDbLine
 10
-56.96032279593055
 20
27.17119423907752
 30
0.0
 11
-56.12704461251269
 21
29.4299512556554
 31
0.0
  0
LINE
  5
101
330
17
100
AcDbEntity
  8
2D$FER
100
AcDbLine
 10
-56.96032279593055
 20
27.17119423907752
 30
0.0
 11
-57.88024397766276
 21
29.4299512556554
 31
0.0
  0
LINE
  5
102
330
17
100
AcDbEntity
  8
2D$FER
100
AcDbLine
 10
-57.88024397766276
 20
29.4299512556554
 30
0.0
 11
-57.23447753024811
 21
29.4299512556554
 31
0.0
  0
LINE
  5
103
330
17
100
AcDbEntity
  8
2D$FER
100
AcDbLine
 10
-56.68616806161299
 20
29.4299512556554
 30
0.0
 11
-56.12704461251269
 21
29.4299512556554
 31
0.0
  0
LINE
  5
104
330
17
100
AcDbEntity
  8
2D$FER
100
AcDbLine
 10
-56.68616806161299
 20
35.22285921411822
 30
0.0
 11
-56.68616806161299
 21
29.4299512556554
 31
0.0
  0
LINE
  5
105
330
17
100
AcDbEntity
  8
2D$FER
100
AcDbLine
 10
-57.23447753026267
 20
35.22285921411822
 30
0.0
 11
-57.23447753024811
 21
29.4299512556554
 31
0.0
  0
LINE
  5
106
330
17
100
AcDbEntity
  8
2D$FER
100
AcDbLine
 10
-67.50608363229549
 20
14.46841928881804
 30
0.0
 11
-67.50608363229549
 21
15.4675161443829
 31
0.0
  0
LINE
  5
107
330
17
100
AcDbEntity
  8
2D$FER
100
AcDbLine
 10
-66.66032279592764
 20
16.4675161443829
 30
0.0
 11
-66.66032279592764
 21
15.4675161443829
 31
0.0
  0
ARC
  5
108
330
17
100
AcDbEntity
  8
2D$FER
100
AcDbCircle
 10
-23.02138631483831
 20
37.02605951418445
 30
0.0
 40
8.334741264599202
100
AcDbArc
 50
192.494593220482
 51
208.0882778503054
  0
ARC
  5
109
330
17
100
AcDbEntity
  8
2D$FER
100
AcDbCircle
 10
-42.09925927701988
 20
37.02605951418445
 30
0.0
 40
8.334741264599202
100
AcDbArc
 50
331.9117221496945
 51
347.505406779518
  0
LINE
  5
10A
330
17
100
AcDbEntity
  8
2D$FER
100
AcDbLine
 10
-37.32800562951888
 20
40.68335123274301
 30
0.0
 11
-37.32800562951888
 21
41.74151895337491
 31
0.0
  0
LINE
  5
10B
330
17
100
AcDbEntity
  8
2D$FER
100
AcDbLine
 10
-27.79263996235386
 20
40.68335123274301
 30
0.0
 11
-27.79263996235386
 21
41.74151895337491
 31
0.0
  0
ARC
  5
10C
330
17
100
AcDbEntity
  8
2D$FER
100
AcDbCircle
 10
-39.20841575288796
 20
35.75483798019559
 30
0.0
 40
5.27505309097831
100
AcDbArc
 50
5.090175904926858
 51
69.11629689067095
  0
ARC
  5
10D
330
17
100
AcDbEntity
  8
2D$FER
100
AcDbCircle
 10
-39.20841575288796
 20
35.75483798019559
 30
0.0
 40
6.27505309097831
100
AcDbArc
 50
4.277344799969848
 51
72.56255167706911
  0
ARC
  5
10E
330
17
100
AcDbEntity
  8
2D$FER
100
AcDbCircle
 10
-25.91222983897023
 20
35.75483798019559
 30
0.0
 40
6.27505309097831
100
AcDbArc
 50
107.437448322931
 51
175.7226552000301
  0
ARC
  5
10F
330
17
100
AcDbEntity
  8
2D$FER
100
AcDbCircle
 10
-25.91222983897023
 20
35.75483798019559
 30
0.0
 40
5.27505309097831
100
AcDbArc
 50
110.883703109329
 51
174.9098240950731
  0
LINE
  5
110
330
17
100
AcDbEntity
  8
2D$FER
100
AcDbLine
 10
-34.37844431737904
 20
36.22285921412004
 30
0.0
 11
-30.74220127447916
 21
36.22285921412004
 31
0.0
  0
LINE
  5
111
330
17
100
AcDbEntity
  8
2D$FER
100
AcDbLine
 10
-34.37844431737904
 20
35.22285921412004
 30
0.0
 11
-30.74220127447916
 21
35.22285921412004
 31
0.0
  0
LINE
  5
112
330
17
100
AcDbEntity
  8
2D$FER
100
AcDbLine
 10
-34.37844431737904
 20
36.22285921412004
 30
0.0
 11
-34.37844431737904
 21
35.22285921412004
 31
0.0
  0
LINE
  5
113
330
17
100
AcDbEntity
  8
2D$FER
100
AcDbLine
 10
-30.74220127447916
 20
36.22285921412004
 30
0.0
 11
-30.74220127447916
 21
35.22285921412004
 31
0.0
  0
ARC
  5
114
330
17
100
AcDbEntity
  8
2D$FER
100
AcDbCircle
 10
-20.7901215065358
 20
37.70911573097874
 30
0.0
 40
1.365677791741039
100
AcDbArc
 50
358.6178999938238
 51
23.1466455877412
  0
LINE
  5
115
330
17
100
AcDbEntity
  8
2D$FER
100
AcDbLine
 10
-21.1519547390053
 20
37.67617577875899
 30
0.0
 11
-19.4248410291184
 21
37.67617577875899
 31
0.0
  0
LINE
  5
116
330
17
100
AcDbEntity
  8
2D$FER
100
AcDbLine
 10
-19.5135249945306
 20
38.24594432025151
 30
0.0
 11
-21.1519547390053
 21
37.67617577875899
 31
0.0
  0
ARC
  5
117
330
17
100
AcDbEntity
  8
2D$FER
100
AcDbCircle
 10
-20.79758255467459
 20
38.75070512227103
 30
0.0
 40
1.365677791741039
100
AcDbArc
 50
337.992770667848
 51
23.14664558774115
  0
ARC
  5
118
330
17
100
AcDbEntity
  8
2D$FER
100
AcDbCircle
 10
-20.78715588120394
 20
39.79928538067179
 30
0.0
 40
1.365677791741039
100
AcDbArc
 50
337.992770667848
 51
23.14664558774115
  0
ARC
  5
119
330
17
100
AcDbEntity
  8
2D$FER
100
AcDbCircle
 10
-20.77672920771874
 20
40.84786563907073
 30
0.0
 40
1.365677791741039
100
AcDbArc
 50
337.992770667848
 51
23.14664558774115
  0
ARC
  5
11A
330
17
100
AcDbEntity
  8
2D$FER
100
AcDbCircle
 10
-20.78715588120394
 20
41.89644589747513
 30
0.0
 40
1.365677791741039
100
AcDbArc
 50
337.992770667848
 51
23.14664558774115
  0
ARC
  5
11B
330
17
100
AcDbEntity
  8
2D$FER
100
AcDbCircle
 10
-20.77672920771874
 20
42.94502615586862
 30
0.0
 40
1.365677791741039
100
AcDbArc
 50
337.992770667848
 51
23.14664558774115
  0
ARC
  5
11C
330
17
100
AcDbEntity
  8
2D$FER
100
AcDbCircle
 10
-20.78715588120394
 20
43.99360641427847
 30
0.0
 40
1.365677791741039
100
AcDbArc
 50
337.992770667848
 51
23.14664558774115
  0
ARC
  5
11D
330
17
100
AcDbEntity
  8
2D$FER
100
AcDbCircle
 10
-20.77672920771874
 20
45.04218667267742
 30
0.0
 40
1.365677791741039
100
AcDbArc
 50
337.992770667848
 51
23.14664558774115
  0
ARC
  5
11E
330
17
100
AcDbEntity
  8
2D$FER
100
AcDbCircle
 10
-20.77672920771874
 20
47.13934718948258
 30
0.0
 40
1.365677791741039
100
AcDbArc
 50
337.992770667848
 51
23.14664558774115
  0
ARC
  5
11F
330
17
100
AcDbEntity
  8
2D$FER
100
AcDbCircle
 10
-20.78715588120394
 20
46.09076693108182
 30
0.0
 40
1.365677791741039
100
AcDbArc
 50
337.992770667848
 51
23.14664558774115
  0
LINE
  5
120
330
17
100
AcDbEntity
  8
2D$FER
100
AcDbLine
 10
-19.51055936919875
 20
40.33611396994274
 30
0.0
 11
-21.12495650442725
 21
39.70517638726051
 31
0.0
  0
LINE
  5
121
330
17
100
AcDbEntity
  8
2D$FER
100
AcDbLine
 10
-19.51055936919875
 20
42.43327448674245
 30
0.0
 11
-21.1249565044418
 21
41.80233690406021
 31
0.0
  0
LINE
  5
122
330
17
100
AcDbEntity
  8
2D$FER
100
AcDbLine
 10
-19.51055936919875
 20
44.53043500354943
 30
0.0
 11
-21.1249565044418
 21
43.89949742086719
 31
0.0
  0
ARC
  5
123
330
17
100
AcDbEntity
  8
2D$FER
100
AcDbCircle
 10
-19.86921333937789
 20
45.45982934839412
 30
0.0
 40
1.365677791741039
100
AcDbArc
 50
156.8533544122588
 51
202.0072293321519
  0
ARC
  5
124
330
17
100
AcDbEntity
  8
2D$FER
100
AcDbCircle
 10
-19.86921333937789
 20
46.53348652695058
 30
0.0
 40
1.365677791741039
100
AcDbArc
 50
157.9927706679188
 51
203.1466455877412
  0
ARC
  5
125
330
17
100
AcDbEntity
  8
2D$FER
100
AcDbCircle
 10
-19.86921333937789
 20
43.36266883159078
 30
0.0
 40
1.365677791741039
100
AcDbArc
 50
156.8533544122588
 51
202.0072293321519
  0
ARC
  5
126
330
17
100
AcDbEntity
  8
2D$FER
100
AcDbCircle
 10
-19.86921333937789
 20
44.43632601014542
 30
0.0
 40
1.365677791741039
100
AcDbArc
 50
157.9927706679188
 51
203.1466455877412
  0
ARC
  5
127
330
17
100
AcDbEntity
  8
2D$FER
100
AcDbCircle
 10
-19.86921333937789
 20
41.26550831478016
 30
0.0
 40
1.365677791741039
100
AcDbArc
 50
156.8533544122588
 51
202.0072293321519
  0
ARC
  5
128
330
17
100
AcDbEntity
  8
2D$FER
100
AcDbCircle
 10
-19.86921333937789
 20
42.33916549333662
 30
0.0
 40
1.365677791741039
100
AcDbArc
 50
157.9927706679188
 51
203.1466455877412
  0
ARC
  5
129
330
17
100
AcDbEntity
  8
2D$FER
100
AcDbCircle
 10
-19.86921333937789
 20
39.1683477979841
 30
0.0
 40
1.365677791741039
100
AcDbArc
 50
156.8533544122588
 51
202.0072293321519
  0
ARC
  5
12A
330
17
100
AcDbEntity
  8
2D$FER
100
AcDbCircle
 10
-19.86921333937789
 20
40.24200497653874
 30
0.0
 40
1.365677791741039
100
AcDbArc
 50
157.9927706679188
 51
203.1466455877412
  0
ARC
  5
12B
330
17
100
AcDbEntity
  8
2D$FER
100
AcDbCircle
 10
-19.87964001284854
 20
47.58206678535498
 30
0.0
 40
1.365677791741039
100
AcDbArc
 50
176.0486106151023
 51
203.1466455877411
  0
LINE
  5
12C
330
17
100
AcDbEntity
  8
2D$FER
100
AcDbLine
 10
-21.24207141611259
 20
47.67617577875899
 30
0.0
 11
-19.52098604266939
 21
47.67617577875899
 31
0.0
  0
LINE
  5
12D
330
17
100
AcDbEntity
  8
2D$FER
100
AcDbLine
 10
-19.51055936919875
 20
46.62759552035459
 30
0.0
 11
-21.1249565044418
 21
45.99665793767417
 31
0.0
  0
ARC
  5
12E
330
17
100
AcDbEntity
  8
2D$FER
100
AcDbCircle
 10
-19.86921333937789
 20
38.1448444597354
 30
0.0
 40
1.365677791741039
100
AcDbArc
 50
157.9927706679188
 51
200.0705292091488
  0
LINE
  5
12F
330
17
100
AcDbEntity
  8
2D$FER
100
AcDbLine
 10
-19.52098604266939
 20
39.2875337115438
 30
0.0
 11
-21.13538317791244
 21
38.65659612886157
 31
0.0
  0
LINE
  5
130
330
17
100
AcDbEntity
  8
2D$FER
100
AcDbLine
 10
-19.52098604266939
 20
41.38469422834714
 30
0.0
 11
-21.13538317791244
 21
40.75375664566673
 31
0.0
  0
LINE
  5
131
330
17
100
AcDbEntity
  8
2D$FER
100
AcDbLine
 10
-19.52098604266939
 20
43.48185474515049
 30
0.0
 11
-21.13538317791244
 21
42.85091716247007
 31
0.0
  0
LINE
  5
132
330
17
100
AcDbEntity
  8
2D$FER
100
AcDbLine
 10
-19.52098604266939
 20
45.57901526195565
 30
0.0
 11
-21.13538317791244
 21
44.94807767927341
 31
0.0
  0
LINE
  5
133
330
17
100
AcDbEntity
  8
2D$FER
100
AcDbLine
 10
-19.52098604266939
 20
47.67617577875899
 30
0.0
 11
-21.13538317791244
 21
47.04523819607675
 31
0.0
  0
ARC
  5
134
330
17
100
AcDbEntity
  8
2D$FER
100
AcDbCircle
 10
-63.95661893364741
 20
2.92461704788002
 30
0.0
 40
45.04232202275369
100
AcDbArc
 50
17.89867981593605
 51
40.89784151835234
  0
ARC
  5
135
330
17
100
AcDbEntity
  8
2D$FER
100
AcDbCircle
 10
-1.164026658210787
 20
2.924617047892752
 30
0.0
 40
45.04232202274337
100
AcDbArc
 50
139.1021584816355
 51
162.1013201840838
  0
ARC
  5
136
330
17
100
AcDbEntity
  8
2D$FER
100
AcDbCircle
 10
-1.163467008576845
 20
2.924585750033657
 30
0.0
 40
44.04289310597208
100
AcDbArc
 50
139.0820480018232
 51
162.0917211190517
  0
ARC
  5
137
330
17
100
AcDbEntity
  8
2D$FER
100
AcDbCircle
 10
-63.95717858328135
 20
2.924585750022743
 30
0.0
 40
44.04289310598085
100
AcDbArc
 50
17.90827888096404
 51
40.9179519981875
  0
LINE
  5
138
330
17
100
AcDbEntity
  8
2D$FER
100
AcDbLine
 10
-19.66032279592764
 20
37.67617577875899
 30
0.0
 11
-19.66032279592764
 21
16.4675161443829
 31
0.0
  0
LINE
  5
139
330
17
100
AcDbEntity
  8
2D$FER
100
AcDbLine
 10
-21.06032279593637
 20
37.67617577875899
 30
0.0
 11
-21.06032279593637
 21
16.4675161443829
 31
0.0
  0
LINE
  5
13A
330
17
100
AcDbEntity
  8
2D$FER
100
AcDbLine
 10
-19.66032279592764
 20
15.4675161443829
 30
0.0
 11
-19.66032279592764
 21
6.499999999998181
 31
0.0
  0
LINE
  5
13B
330
17
100
AcDbEntity
  8
2D$FER
100
AcDbLine
 10
-21.06032279593637
 20
15.4675161443829
 30
0.0
 11
-21.06032279593637
 21
6.499999999998181
 31
0.0
  0
ARC
  5
13C
330
17
100
AcDbEntity
  8
2D$FER
100
AcDbCircle
 10
-30.54213940983755
 20
13.29230535073839
 30
0.0
 40
2.053329005670823
100
AcDbArc
 50
329.3618309864331
 51
190.6161092146742
  0
ARC
  5
13D
330
17
100
AcDbEntity
  8
2D$FER
100
AcDbCircle
 10
-30.54213940983755
 20
13.29230535073839
 30
0.0
 40
1.053329005670823
100
AcDbArc
 50
329.3618309864343
 51
190.6161092150332
  0
LINE
  5
13E
330
17
100
AcDbEntity
  8
2D$FER
100
AcDbLine
 10
-28.77544953723554
 20
12.24589869004012
 30
0.0
 11
-29.63585226262512
 21
12.75551339757476
 31
0.0
  0
ARC
  5
13F
330
17
100
AcDbEntity
  8
2D$FER
100
AcDbCircle
 10
-38.21285197099496
 20
14.41234862249257
 30
0.0
 40
5.847739646054331
100
AcDbArc
 50
179.4506147745415
 51
345.1539548943509
  0
ARC
  5
140
330
17
100
AcDbEntity
  8
2D$FER
100
AcDbCircle
 10
-38.20020899640804
 20
14.46841928881986
 30
0.0
 40
4.905874635895726
100
AcDbArc
 50
180.0
 51
341.0710536471617
  0
LINE
  5
141
330
17
100
AcDbEntity
  8
2D$FER
100
AcDbLine
 10
-36.34519605462265
 20
12.24589869004012
 30
0.0
 11
-35.48479332923307
 21
12.75551339757476
 31
0.0
  0
ARC
  5
142
330
17
100
AcDbEntity
  8
2D$FER
100
AcDbCircle
 10
-34.57850618202065
 20
13.29230535073839
 30
0.0
 40
1.053329005670823
100
AcDbArc
 50
349.3838907849668
 51
210.6381690135654
  0
ARC
  5
143
330
17
100
AcDbEntity
  8
2D$FER
100
AcDbCircle
 10
-34.57850618202065
 20
13.29230535073839
 30
0.0
 40
2.053329005670823
100
AcDbArc
 50
349.3838907853258
 51
210.6381690135669
  0
LINE
  5
144
330
17
100
AcDbEntity
  8
2D$FER
100
AcDbLine
 10
-22.86032279592473
 20
16.4675161443829
 30
0.0
 11
-17.86032279592473
 21
16.4675161443829
 31
0.0
  0
LINE
  5
145
330
17
100
AcDbEntity
  8
2D$FER
100
AcDbLine
 10
-22.86032279592473
 20
15.46751614438108
 30
0.0
 11
-17.86032279592473
 21
15.4675161443829
 31
0.0
  0
LINE
  5
146
330
17
100
AcDbEntity
  8
2D$FER
100
AcDbLine
 10
-22.86032279592473
 20
16.4675161443829
 30
0.0
 11
-22.86032279592473
 21
15.46751614438108
 31
0.0
  0
LINE
  5
147
330
17
100
AcDbEntity
  8
2D$FER
100
AcDbLine
 10
-17.86032279592473
 20
16.4675161443829
 30
0.0
 11
-17.86032279592473
 21
15.4675161443829
 31
0.0
  0
ARC
  5
148
330
17
100
AcDbEntity
  8
2D$FER
100
AcDbCircle
 10
-26.92043659545016
 20
14.46841928881986
 30
0.0
 40
4.905874635895726
100
AcDbArc
 50
198.9289463528383
 51
0.0
  0
ARC
  5
149
330
17
100
AcDbEntity
  8
2D$FER
100
AcDbCircle
 10
-26.90779362086323
 20
14.41234862249257
 30
0.0
 40
5.847739646054331
100
AcDbArc
 50
194.846045105649
 51
0.5493852254584254
  0
LINE
  5
14A
330
17
100
AcDbEntity
  8
2D$FER
100
AcDbLine
 10
-22.01456195955689
 20
14.46841928881986
 30
0.0
 11
-22.01456195955689
 21
15.4675161443829
 31
0.0
  0
ARC
  5
14B
330
17
100
AcDbEntity
  8
2D$FER
100
AcDbCircle
 10
-23.02138631483831
 20
37.02605951418445
 30
0.0
 40
9.334741264599202
100
AcDbArc
 50
191.1378919840601
 51
208.0882778503065
  0
ARC
  5
14C
330
17
100
AcDbEntity
  8
2D$FER
100
AcDbCircle
 10
-26.84559567617544
 20
34.9851272292326
 30
0.0
 40
4.0
100
AcDbArc
 50
208.0882778502695
 51
219.9924418839601
  0
ARC
  5
14D
330
17
100
AcDbEntity
  8
2D$FER
100
AcDbCircle
 10
-26.84559567617544
 20
34.9851272292326
 30
0.0
 40
5.0
100
AcDbArc
 50
208.0882778502603
 51
219.9924418839682
  0
ARC
  5
14E
330
17
100
AcDbEntity
  8
2D$FER
100
AcDbCircle
 10
-38.27504991569731
 20
34.9851272292326
 30
0.0
 40
5.0
100
AcDbArc
 50
320.0075581160319
 51
331.9117221497397
  0
ARC
  5
14F
330
17
100
AcDbEntity
  8
2D$FER
100
AcDbCircle
 10
-38.27504991569731
 20
34.9851272292326
 30
0.0
 40
4.0
100
AcDbArc
 50
320.0075581160399
 51
331.9117221497305
  0
ARC
  5
150
330
17
100
AcDbEntity
  8
2D$FER
100
AcDbCircle
 10
-42.09925927701988
 20
37.02605951418445
 30
0.0
 40
9.334741264599202
100
AcDbArc
 50
331.9117221496934
 51
348.8621080143373
  0
LINE
  5
151
330
17
100
AcDbEntity
  8
2D$FER
100
AcDbLine
 10
-32.56032279593637
 20
27.17119423907934
 30
0.0
 11
-31.72704461251851
 21
29.4299512556554
 31
0.0
  0
LINE
  5
152
330
17
100
AcDbEntity
  8
2D$FER
100
AcDbLine
 10
-32.56032279593637
 20
27.17119423907934
 30
0.0
 11
-33.48024397766858
 21
29.4299512556554
 31
0.0
  0
LINE
  5
153
330
17
100
AcDbEntity
  8
2D$FER
100
AcDbLine
 10
-33.48024397766858
 20
29.4299512556554
 30
0.0
 11
-32.83447753025393
 21
29.4299512556554
 31
0.0
  0
LINE
  5
154
330
17
100
AcDbEntity
  8
2D$FER
100
AcDbLine
 10
-32.28616806160426
 20
29.4299512556554
 30
0.0
 11
-31.72704461251851
 21
29.4299512556554
 31
0.0
  0
LINE
  5
155
330
17
100
AcDbEntity
  8
2D$FER
100
AcDbLine
 10
-32.28616806160426
 20
35.22285921412004
 30
0.0
 11
-32.28616806160426
 21
29.4299512556554
 31
0.0
  0
LINE
  5
156
330
17
100
AcDbEntity
  8
2D$FER
100
AcDbLine
 10
-32.83447753025393
 20
35.22285921412004
 30
0.0
 11
-32.83447753025393
 21
29.4299512556554
 31
0.0
  0
LINE
  5
157
330
17
100
AcDbEntity
  8
2D$FER
100
AcDbLine
 10
-43.10608363230131
 20
14.46841928881986
 30
0.0
 11
-43.10608363230131
 21
15.4675161443829
 31
0.0
  0
LINE
  5
158
330
17
100
AcDbEntity
  8
2D$FER
100
AcDbLine
 10
-6.960322795930551
 20
6.499999999998181
 30
0.0
 11
-32.26856911508366
 21
6.499999999998181
 31
0.0
  0
ARC
  5
159
330
17
100
AcDbEntity
  8
2D$FER
100
AcDbCircle
 10
-83.78521744765749
 20
73.16414054811685
 30
0.0
 40
2.090334961392333
100
AcDbArc
 50
11.16961048995017
 51
93.83812610651371
  0
ARC
  5
15A
330
17
100
AcDbEntity
  8
2D$FER
100
AcDbCircle
 10
-83.78521744765749
 20
73.16414054811685
 30
0.0
 40
1.090334961392333
100
AcDbArc
 50
21.80067186167022
 51
93.8381261064285
  0
ARC
  5
15B
330
17
100
AcDbEntity
  8
2D$FER
100
AcDbCircle
 10
-83.93728071058285
 20
72.60608158235846
 30
0.0
 40
1.258836393207885
100
AcDbArc
 50
184.8129635231972
 51
342.8406828697061
  0
ARC
  5
15C
330
17
100
AcDbEntity
  8
2D$FER
100
AcDbCircle
 10
-83.78521744765749
 20
53.04305852825382
 30
0.0
 40
1.090334961392333
100
AcDbArc
 50
266.1618738935722
 51
338.1993281383305
  0
ARC
  5
15D
330
17
100
AcDbEntity
  8
2D$FER
100
AcDbCircle
 10
-83.78521744765749
 20
53.04305852825382
 30
0.0
 40
2.090334961392333
100
AcDbArc
 50
266.1618738934863
 51
348.8303895100497
  0
ARC
  5
15E
330
17
100
AcDbEntity
  8
2D$FER
100
AcDbCircle
 10
-83.93728071058285
 20
53.60111749401221
 30
0.0
 40
1.258836393207885
100
AcDbArc
 50
17.15931713029449
 51
175.1870364768028
  0
ARC
  5
15F
330
17
100
AcDbEntity
  8
2D$FER
100
AcDbCircle
 10
-83.93728071058285
 20
72.60608158235846
 30
0.0
 40
2.258836393207885
100
AcDbArc
 50
182.680060445771
 51
347.2114918953073
  0
ARC
  5
160
330
17
100
AcDbEntity
  8
2D$FER
100
AcDbCircle
 10
-83.93728071058285
 20
53.60111749401221
 30
0.0
 40
2.258836393207885
100
AcDbArc
 50
12.78850810469292
 51
177.319939554229
  0
LINE
  5
161
330
17
100
AcDbEntity
  8
2D$FER
100
AcDbLine
 10
-92.68048585501674
 20
66.02808526508124
 30
0.0
 11
-92.68048585501674
 21
64.46400077976614
 31
0.0
  0
LINE
  5
162
330
17
100
AcDbEntity
  8
2D$FER
100
AcDbLine
 10
-91.68048585501674
 20
66.02808526508124
 30
0.0
 11
-91.68048585501674
 21
64.46400077976432
 31
0.0
  0
LINE
  5
163
330
17
100
AcDbEntity
  8
2D$FER
100
AcDbLine
 10
-91.68048585501674
 20
59.43304791115588
 30
0.0
 11
-91.68048585501674
 21
63.46400077976432
 31
0.0
  0
LINE
  5
164
330
17
100
AcDbEntity
  8
2D$FER
100
AcDbLine
 10
-92.68048585501674
 20
59.43304791115406
 30
0.0
 11
-92.68048585501674
 21
63.46400077976432
 31
0.0
  0
LINE
  5
165
330
17
100
AcDbEntity
  8
2D$FER
100
AcDbLine
 10
-95.97959416863159
 20
63.46400077976614
 30
0.0
 11
-95.97959416863159
 21
64.46400077976614
 31
0.0
  0
LINE
  5
166
330
17
100
AcDbEntity
  8
2D$FER
100
AcDbLine
 10
-95.97959416863159
 20
63.46400077976614
 30
0.0
 11
-91.1410514232266
 21
63.46400077976432
 31
0.0
  0
LINE
  5
167
330
17
100
AcDbEntity
  8
2D$FER
100
AcDbLine
 10
-95.97959416863159
 20
64.46400077976432
 30
0.0
 11
-91.1410514232266
 21
64.46400077976796
 31
0.0
  0
LINE
  5
168
330
17
100
AcDbEntity
  8
2D$FER
100
AcDbLine
 10
-91.1410514232266
 20
63.46400077976432
 30
0.0
 11
-91.1410514232266
 21
64.46400077976796
 31
0.0
  0
LINE
  5
169
330
17
100
AcDbEntity
  8
2D$FER
100
AcDbLine
 10
-92.86032279592473
 20
78.99999999999818
 30
0.0
 11
-92.86032279592473
 21
64.46400077976614
 31
0.0
  0
LINE
  5
16A
330
17
100
AcDbEntity
  8
2D$FER
100
AcDbLine
 10
-94.26032279593346
 20
78.99999999999818
 30
0.0
 11
-94.26032279593346
 21
64.46400077976432
 31
0.0
  0
ARC
  5
16B
330
17
100
AcDbEntity
  8
2D$FER
100
AcDbCircle
 10
-83.50422066934698
 20
60.12418269317641
 30
0.0
 40
9.176429598996988
100
AcDbArc
 50
179.6570191058788
 51
267.3709421006117
  0
ARC
  5
16C
330
17
100
AcDbEntity
  8
2D$FER
100
AcDbCircle
 10
-83.50422066934698
 20
66.08301638319426
 30
0.0
 40
9.176429598996988
100
AcDbArc
 50
92.6290578993883
 51
180.3429808941212
  0
ARC
  5
16D
330
17
100
AcDbEntity
  8
2D$FER
100
AcDbCircle
 10
-83.50422066934698
 20
66.08301638319426
 30
0.0
 40
8.176429598996988
100
AcDbArc
 50
92.62905789939154
 51
180.3429808941158
  0
LINE
  5
16E
330
17
100
AcDbEntity
  8
2D$FER
100
AcDbLine
 10
-86.19364640800632
 20
72.50046105046204
 30
0.0
 11
-85.19167831641971
 21
72.50046105046204
 31
0.0
  0
LINE
  5
16F
330
17
100
AcDbEntity
  8
2D$FER
100
AcDbLine
 10
-86.19364640800632
 20
53.70673802590863
 30
0.0
 11
-85.19167831641971
 21
53.70673802590863
 31
0.0
  0
ARC
  5
170
330
17
100
AcDbEntity
  8
2D$FER
100
AcDbCircle
 10
-83.50422066934698
 20
60.12418269317641
 30
0.0
 40
8.176429598996988
100
AcDbArc
 50
179.6570191058842
 51
267.3709421006084
  0
ARC
  5
171
330
17
100
AcDbEntity
  8
2D$FER
100
AcDbCircle
 10
-59.1042206693528
 20
60.12418269317641
 30
0.0
 40
9.176429598996988
100
AcDbArc
 50
179.6570191058788
 51
267.3709421006116
  0
ARC
  5
172
330
17
100
AcDbEntity
  8
2D$FER
100
AcDbCircle
 10
-79.35462479501439
 20
60.17911381128943
 30
0.0
 40
9.314465058169505
100
AcDbArc
 50
273.2934871531023
 51
359.9999999999999
  0
ARC
  5
173
330
17
100
AcDbEntity
  8
2D$FER
100
AcDbCircle
 10
-59.1042206693528
 20
66.08301638319426
 30
0.0
 40
9.176429598996988
100
AcDbArc
 50
92.6290578993883
 51
180.3429808941212
  0
LINE
  5
174
330
17
100
AcDbEntity
  8
2D$FER
100
AcDbLine
 10
-68.28048585500801
 20
66.02808526508124
 30
0.0
 11
-68.28048585500801
 21
64.46400077976614
 31
0.0
  0
LINE
  5
175
330
17
100
AcDbEntity
  8
2D$FER
100
AcDbLine
 10
-68.28048585500801
 20
59.43304791115406
 30
0.0
 11
-68.28048585500801
 21
63.46400077976432
 31
0.0
  0
ARC
  5
176
330
17
100
AcDbEntity
  8
2D$FER
100
AcDbCircle
 10
-78.78336488128116
 20
73.06906775386597
 30
0.0
 40
2.258836393207885
100
AcDbArc
 50
90.30795340471194
 51
167.2114918953069
  0
ARC
  5
177
330
17
100
AcDbEntity
  8
2D$FER
100
AcDbCircle
 10
-79.35462479501439
 20
66.02808526508124
 30
0.0
 40
9.314465058169505
100
AcDbArc
 50
0.0
 51
86.70651284689777
  0
ARC
  5
178
330
17
100
AcDbEntity
  8
2D$FER
100
AcDbCircle
 10
-79.35462479501439
 20
66.02808526508124
 30
0.0
 40
8.314465058169505
100
AcDbArc
 50
0.0
 51
86.7065128469001
  0
ARC
  5
179
330
17
100
AcDbEntity
  8
2D$FER
100
AcDbCircle
 10
-78.78336488128116
 20
73.06906775386597
 30
0.0
 40
1.258836393207885
100
AcDbArc
 50
90.30795340469277
 51
156.5972335446107
  0
LINE
  5
17A
330
17
100
AcDbEntity
  8
2D$FER
100
AcDbLine
 10
-83.17844431738195
 20
73.56906775386597
 30
0.0
 11
-79.54220127448207
 21
73.56906775386597
 31
0.0
  0
LINE
  5
17B
330
17
100
AcDbEntity
  8
2D$FER
100
AcDbLine
 10
-79.98616806160135
 20
72.23468748366213
 30
0.0
 11
-79.98616806160135
 21
72.56906775386597
 31
0.0
  0
LINE
  5
17C
330
17
100
AcDbEntity
  8
2D$FER
100
AcDbLine
 10
-80.98616806160135
 20
72.10608158235846
 30
0.0
 11
-80.98616806160135
 21
72.56906775386597
 31
0.0
  0
ARC
  5
17D
330
17
100
AcDbEntity
  8
2D$FER
100
AcDbCircle
 10
-78.78336488128116
 20
72.60608158235846
 30
0.0
 40
1.258836393207885
100
AcDbArc
 50
197.1593171302945
 51
355.1870364768035
  0
ARC
  5
17E
330
17
100
AcDbEntity
  8
2D$FER
100
AcDbCircle
 10
-78.78336488128116
 20
72.60608158235846
 30
0.0
 40
2.258836393207885
100
AcDbArc
 50
192.7885081046931
 51
357.3199395542293
  0
LINE
  5
17F
330
17
100
AcDbEntity
  8
2D$FER
100
AcDbLine
 10
-81.73447753024811
 20
72.10608158235846
 30
0.0
 11
-81.73447753024811
 21
72.56906775386597
 31
0.0
  0
LINE
  5
180
330
17
100
AcDbEntity
  8
2D$FER
100
AcDbLine
 10
-82.73447753024811
 20
72.23468748366213
 30
0.0
 11
-82.73447753024811
 21
72.56906775386597
 31
0.0
  0
LINE
  5
181
330
17
100
AcDbEntity
  8
2D$FER
100
AcDbLine
 10
-76.5269991838577
 20
72.50046105046204
 30
0.0
 11
-77.5289672754443
 21
72.50046105046204
 31
0.0
  0
LINE
  5
182
330
17
100
AcDbEntity
  8
2D$FER
100
AcDbLine
 10
-83.17844431738195
 20
72.56906775386597
 30
0.0
 11
-79.54220127448207
 21
72.56906775386597
 31
0.0
  0
LINE
  5
183
330
17
100
AcDbEntity
  8
2D$FER
100
AcDbLine
 10
-83.17844431738195
 20
73.56906775386597
 30
0.0
 11
-83.17844431738195
 21
72.56906775386597
 31
0.0
  0
LINE
  5
184
330
17
100
AcDbEntity
  8
2D$FER
100
AcDbLine
 10
-79.54220127448207
 20
73.56906775386597
 30
0.0
 11
-79.54220127448207
 21
72.56906775386597
 31
0.0
  0
LINE
  5
185
330
17
100
AcDbEntity
  8
2D$FER
100
AcDbLine
 10
-70.04015973684727
 20
66.02808526508124
 30
0.0
 11
-70.04015973684727
 21
64.46400077976614
 31
0.0
  0
LINE
  5
186
330
17
100
AcDbEntity
  8
2D$FER
100
AcDbLine
 10
-71.04015973684727
 20
66.02808526508124
 30
0.0
 11
-71.04015973684727
 21
64.46400077976432
 31
0.0
  0
LINE
  5
187
330
17
100
AcDbEntity
  8
2D$FER
100
AcDbLine
 10
-71.04015973684727
 20
59.43304791115588
 30
0.0
 11
-71.04015973684727
 21
63.46400077976432
 31
0.0
  0
LINE
  5
188
330
17
100
AcDbEntity
  8
2D$FER
100
AcDbLine
 10
-70.04015973684727
 20
59.43304791115406
 30
0.0
 11
-70.04015973684727
 21
63.46400077976432
 31
0.0
  0
LINE
  5
189
330
17
100
AcDbEntity
  8
2D$FER
100
AcDbLine
 10
-71.57959416862286
 20
63.46400077976614
 30
0.0
 11
-71.57959416863741
 21
64.46400077976614
 31
0.0
  0
LINE
  5
18A
330
17
100
AcDbEntity
  8
2D$FER
100
AcDbLine
 10
-71.57959416863741
 20
63.46400077976614
 30
0.0
 11
-66.74105142323242
 21
63.4640007797625
 31
0.0
  0
LINE
  5
18B
330
17
100
AcDbEntity
  8
2D$FER
100
AcDbLine
 10
-71.57959416863741
 20
64.46400077976432
 30
0.0
 11
-66.74105142323242
 21
64.46400077976614
 31
0.0
  0
LINE
  5
18C
330
17
100
AcDbEntity
  8
2D$FER
100
AcDbLine
 10
-81.63447753025685
 20
59.65505991079408
 30
0.0
 11
-81.63447753025685
 21
53.63813132250471
 31
0.0
  0
LINE
  5
18D
330
17
100
AcDbEntity
  8
2D$FER
100
AcDbLine
 10
-81.08616806160717
 20
59.65505991079408
 30
0.0
 11
-81.08616806160717
 21
53.63813132250471
 31
0.0
  0
ARC
  5
18E
330
17
100
AcDbEntity
  8
2D$FER
100
AcDbCircle
 10
-78.78336488128116
 20
53.13813132250471
 30
0.0
 40
1.258836393207885
100
AcDbArc
 50
203.4027664553896
 51
269.6920465953073
  0
ARC
  5
18F
330
17
100
AcDbEntity
  8
2D$FER
100
AcDbCircle
 10
-78.78336488128116
 20
53.13813132250471
 30
0.0
 40
2.258836393207885
100
AcDbArc
 50
192.7885081046929
 51
269.6920465952877
  0
LINE
  5
190
330
17
100
AcDbEntity
  8
2D$FER
100
AcDbLine
 10
-83.17844431738195
 20
52.63813132250471
 30
0.0
 11
-79.54220127448207
 21
52.63813132250471
 31
0.0
  0
LINE
  5
191
330
17
100
AcDbEntity
  8
2D$FER
100
AcDbLine
 10
-79.98616806160135
 20
53.97251159271036
 30
0.0
 11
-79.98616806160135
 21
53.63813132250652
 31
0.0
  0
LINE
  5
192
330
17
100
AcDbEntity
  8
2D$FER
100
AcDbLine
 10
-80.98616806160135
 20
54.10111749401221
 30
0.0
 11
-80.98616806160135
 21
53.63813132250471
 31
0.0
  0
ARC
  5
193
330
17
100
AcDbEntity
  8
2D$FER
100
AcDbCircle
 10
-78.78336488128116
 20
53.60111749401221
 30
0.0
 40
1.258836393207885
100
AcDbArc
 50
4.81296352319684
 51
162.8406828697055
  0
ARC
  5
194
330
17
100
AcDbEntity
  8
2D$FER
100
AcDbCircle
 10
-78.78336488128116
 20
53.60111749401221
 30
0.0
 40
2.258836393207885
100
AcDbArc
 50
2.68006044577101
 51
167.2114918953071
  0
LINE
  5
195
330
17
100
AcDbEntity
  8
2D$FER
100
AcDbLine
 10
-81.73447753024811
 20
54.10111749401221
 30
0.0
 11
-81.73447753024811
 21
53.63813132250471
 31
0.0
  0
LINE
  5
196
330
17
100
AcDbEntity
  8
2D$FER
100
AcDbLine
 10
-82.73447753024811
 20
53.97251159271036
 30
0.0
 11
-82.73447753024811
 21
53.63813132250652
 31
0.0
  0
LINE
  5
197
330
17
100
AcDbEntity
  8
2D$FER
100
AcDbLine
 10
-76.5269991838577
 20
53.70673802590863
 30
0.0
 11
-77.5289672754443
 21
53.70673802590863
 31
0.0
  0
LINE
  5
198
330
17
100
AcDbEntity
  8
2D$FER
100
AcDbLine
 10
-83.17844431738195
 20
53.63813132250471
 30
0.0
 11
-79.54220127448207
 21
53.63813132250471
 31
0.0
  0
ARC
  5
199
330
17
100
AcDbEntity
  8
2D$FER
100
AcDbCircle
 10
-79.35462479501439
 20
60.17911381128943
 30
0.0
 40
8.314465058169505
100
AcDbArc
 50
273.2934871530998
 51
359.9999999999999
  0
LINE
  5
19A
330
17
100
AcDbEntity
  8
2D$FER
100
AcDbLine
 10
-83.17844431738195
 20
52.63813132250471
 30
0.0
 11
-83.17844431738195
 21
53.63813132250471
 31
0.0
  0
LINE
  5
19B
330
17
100
AcDbEntity
  8
2D$FER
100
AcDbLine
 10
-79.54220127448207
 20
52.63813132250471
 30
0.0
 11
-79.54220127448207
 21
53.63813132250471
 31
0.0
  0
LINE
  5
19C
330
17
100
AcDbEntity
  8
2D$FER
100
AcDbLine
 10
-82.28024397767149
 20
59.65505991079408
 30
0.0
 11
-81.63447753025685
 21
59.65505991079408
 31
0.0
  0
LINE
  5
19D
330
17
100
AcDbEntity
  8
2D$FER
100
AcDbLine
 10
-81.08616806160717
 20
59.65505991079408
 30
0.0
 11
-80.52704461252142
 21
59.65505991079408
 31
0.0
  0
LINE
  5
19E
330
17
100
AcDbEntity
  8
2D$FER
100
AcDbLine
 10
-81.36032279592473
 20
61.91381692737195
 30
0.0
 11
-80.52704461252142
 21
59.65505991079408
 31
0.0
  0
LINE
  5
19F
330
17
100
AcDbEntity
  8
2D$FER
100
AcDbLine
 10
-81.36032279592473
 20
61.91381692737195
 30
0.0
 11
-82.28024397767149
 21
59.65505991079408
 31
0.0
  0
LINE
  5
1A0
330
17
100
AcDbEntity
  8
2D$FER
100
AcDbLine
 10
-68.46032279593055
 20
78.99999999999818
 30
0.0
 11
-68.46032279593055
 21
64.46400077976432
 31
0.0
  0
LINE
  5
1A1
330
17
100
AcDbEntity
  8
2D$FER
100
AcDbLine
 10
-69.86032279592473
 20
78.99999999999818
 30
0.0
 11
-69.86032279592473
 21
64.46400077976432
 31
0.0
  0
ARC
  5
1A2
330
17
100
AcDbEntity
  8
2D$FER
100
AcDbCircle
 10
-54.95462479502021
 20
60.17911381128943
 30
0.0
 40
9.314465058169505
100
AcDbArc
 50
273.2934871531023
 51
359.9999999999999
  0
ARC
  5
1A3
330
17
100
AcDbEntity
  8
2D$FER
100
AcDbCircle
 10
-34.70422066934407
 20
60.12418269317823
 30
0.0
 40
9.176429598996988
100
AcDbArc
 50
179.6570191058788
 51
267.3709421006116
  0
ARC
  5
1A4
330
17
100
AcDbEntity
  8
2D$FER
100
AcDbCircle
 10
-30.55462479501148
 20
60.17911381129124
 30
0.0
 40
9.314465058169505
100
AcDbArc
 50
273.2934871531023
 51
359.9999999999999
  0
ARC
  5
1A5
330
17
100
AcDbEntity
  8
2D$FER
100
AcDbCircle
 10
-59.38521744766331
 20
73.16414054811685
 30
0.0
 40
2.090334961392333
100
AcDbArc
 50
11.16961048995017
 51
93.8381261065135
  0
ARC
  5
1A6
330
17
100
AcDbEntity
  8
2D$FER
100
AcDbCircle
 10
-54.38336488127243
 20
73.06906775386597
 30
0.0
 40
2.258836393207885
100
AcDbArc
 50
90.30795340471194
 51
167.2114918953069
  0
ARC
  5
1A7
330
17
100
AcDbEntity
  8
2D$FER
100
AcDbCircle
 10
-59.1042206693528
 20
66.08301638319426
 30
0.0
 40
8.176429598996988
100
AcDbArc
 50
92.62905789939154
 51
180.3429808941158
  0
ARC
  5
1A8
330
17
100
AcDbEntity
  8
2D$FER
100
AcDbCircle
 10
-54.95462479502021
 20
66.02808526508124
 30
0.0
 40
9.314465058169505
100
AcDbArc
 50
0.0
 51
86.70651284689777
  0
ARC
  5
1A9
330
17
100
AcDbEntity
  8
2D$FER
100
AcDbCircle
 10
-54.95462479502021
 20
66.02808526508124
 30
0.0
 40
8.314465058169505
100
AcDbArc
 50
0.0
 51
86.70651284690014
  0
ARC
  5
1AA
330
17
100
AcDbEntity
  8
2D$FER
100
AcDbCircle
 10
-59.38521744766331
 20
73.16414054811685
 30
0.0
 40
1.090334961392333
100
AcDbArc
 50
21.80067186167022
 51
93.83812610642812
  0
ARC
  5
1AB
330
17
100
AcDbEntity
  8
2D$FER
100
AcDbCircle
 10
-54.38336488127243
 20
73.06906775386597
 30
0.0
 40
1.258836393207885
100
AcDbArc
 50
90.30795340469277
 51
156.5972335446109
  0
LINE
  5
1AC
330
17
100
AcDbEntity
  8
2D$FER
100
AcDbLine
 10
-58.77844431737321
 20
73.56906775386597
 30
0.0
 11
-55.14220127448789
 21
73.56906775386597
 31
0.0
  0
LINE
  5
1AD
330
17
100
AcDbEntity
  8
2D$FER
100
AcDbLine
 10
-55.58616806160717
 20
72.23468748366213
 30
0.0
 11
-55.58616806160717
 21
72.56906775386597
 31
0.0
  0
LINE
  5
1AE
330
17
100
AcDbEntity
  8
2D$FER
100
AcDbLine
 10
-56.58616806160717
 20
72.10608158235846
 30
0.0
 11
-56.58616806160717
 21
72.56906775386597
 31
0.0
  0
ARC
  5
1AF
330
17
100
AcDbEntity
  8
2D$FER
100
AcDbCircle
 10
-54.38336488127243
 20
72.60608158235846
 30
0.0
 40
1.258836393207885
100
AcDbArc
 50
197.1593171302946
 51
355.1870364768035
  0
ARC
  5
1B0
330
17
100
AcDbEntity
  8
2D$FER
100
AcDbCircle
 10
-54.38336488127243
 20
72.60608158235846
 30
0.0
 40
2.258836393207885
100
AcDbArc
 50
192.7885081046931
 51
357.3199395542293
  0
ARC
  5
1B1
330
17
100
AcDbEntity
  8
2D$FER
100
AcDbCircle
 10
-59.53728071058867
 20
72.60608158235846
 30
0.0
 40
2.258836393207885
100
AcDbArc
 50
182.680060445771
 51
347.2114918953073
  0
ARC
  5
1B2
330
17
100
AcDbEntity
  8
2D$FER
100
AcDbCircle
 10
-59.53728071058867
 20
72.60608158235846
 30
0.0
 40
1.258836393207885
100
AcDbArc
 50
184.8129635231971
 51
342.8406828697055
  0
LINE
  5
1B3
330
17
100
AcDbEntity
  8
2D$FER
100
AcDbLine
 10
-57.33447753025393
 20
72.10608158235846
 30
0.0
 11
-57.33447753025393
 21
72.56906775386597
 31
0.0
  0
LINE
  5
1B4
330
17
100
AcDbEntity
  8
2D$FER
100
AcDbLine
 10
-58.33447753025393
 20
72.23468748366213
 30
0.0
 11
-58.33447753025393
 21
72.56906775386597
 31
0.0
  0
LINE
  5
1B5
330
17
100
AcDbEntity
  8
2D$FER
100
AcDbLine
 10
-52.12699918384897
 20
72.50046105046204
 30
0.0
 11
-53.12896727543557
 21
72.50046105046204
 31
0.0
  0
LINE
  5
1B6
330
17
100
AcDbEntity
  8
2D$FER
100
AcDbLine
 10
-58.77844431737321
 20
72.56906775386597
 30
0.0
 11
-55.14220127448789
 21
72.56906775386597
 31
0.0
  0
LINE
  5
1B7
330
17
100
AcDbEntity
  8
2D$FER
100
AcDbLine
 10
-61.79364640801214
 20
72.50046105046204
 30
0.0
 11
-60.79167831641098
 21
72.50046105046204
 31
0.0
  0
LINE
  5
1B8
330
17
100
AcDbEntity
  8
2D$FER
100
AcDbLine
 10
-58.77844431737321
 20
73.56906775386597
 30
0.0
 11
-58.77844431737321
 21
72.56906775386597
 31
0.0
  0
LINE
  5
1B9
330
17
100
AcDbEntity
  8
2D$FER
100
AcDbLine
 10
-55.14220127448789
 20
73.56906775386597
 30
0.0
 11
-55.14220127448789
 21
72.56906775386597
 31
0.0
  0
LINE
  5
1BA
330
17
100
AcDbEntity
  8
2D$FER
100
AcDbLine
 10
-67.28048585500801
 20
66.02808526508124
 30
0.0
 11
-67.28048585500801
 21
64.46400077976432
 31
0.0
  0
LINE
  5
1BB
330
17
100
AcDbEntity
  8
2D$FER
100
AcDbLine
 10
-45.64015973685309
 20
66.02808526508124
 30
0.0
 11
-45.64015973683854
 21
64.46400077976614
 31
0.0
  0
LINE
  5
1BC
330
17
100
AcDbEntity
  8
2D$FER
100
AcDbLine
 10
-46.64015973685309
 20
66.02808526508124
 30
0.0
 11
-46.64015973683854
 21
64.46400077976432
 31
0.0
  0
LINE
  5
1BD
330
17
100
AcDbEntity
  8
2D$FER
100
AcDbLine
 10
-46.64015973685309
 20
59.43304791115588
 30
0.0
 11
-46.64015973683854
 21
63.46400077976432
 31
0.0
  0
LINE
  5
1BE
330
17
100
AcDbEntity
  8
2D$FER
100
AcDbLine
 10
-45.64015973685309
 20
59.43304791115406
 30
0.0
 11
-45.64015973683854
 21
63.46400077976432
 31
0.0
  0
LINE
  5
1BF
330
17
100
AcDbEntity
  8
2D$FER
100
AcDbLine
 10
-47.17959416862868
 20
63.46400077976614
 30
0.0
 11
-47.17959416862868
 21
64.46400077976614
 31
0.0
  0
LINE
  5
1C0
330
17
100
AcDbEntity
  8
2D$FER
100
AcDbLine
 10
-47.17959416862868
 20
63.46400077976614
 30
0.0
 11
-42.34105142322369
 21
63.4640007797625
 31
0.0
  0
LINE
  5
1C1
330
17
100
AcDbEntity
  8
2D$FER
100
AcDbLine
 10
-47.17959416862868
 20
64.46400077976432
 30
0.0
 11
-42.34105142322369
 21
64.46400077976614
 31
0.0
  0
LINE
  5
1C2
330
17
100
AcDbEntity
  8
2D$FER
100
AcDbLine
 10
-42.34105142322369
 20
63.4640007797625
 30
0.0
 11
-42.34105142322369
 21
64.46400077976614
 31
0.0
  0
LINE
  5
1C3
330
17
100
AcDbEntity
  8
2D$FER
100
AcDbLine
 10
-57.23447753024811
 20
59.65505991079408
 30
0.0
 11
-57.23447753026267
 21
53.63813132250471
 31
0.0
  0
LINE
  5
1C4
330
17
100
AcDbEntity
  8
2D$FER
100
AcDbLine
 10
-56.68616806161299
 20
59.65505991079408
 30
0.0
 11
-56.68616806161299
 21
53.63813132250471
 31
0.0
  0
ARC
  5
1C5
330
17
100
AcDbEntity
  8
2D$FER
100
AcDbCircle
 10
-59.38521744766331
 20
53.04305852825382
 30
0.0
 40
1.090334961392333
100
AcDbArc
 50
266.1618738935719
 51
338.1993281383303
  0
ARC
  5
1C6
330
17
100
AcDbEntity
  8
2D$FER
100
AcDbCircle
 10
-59.38521744766331
 20
53.04305852825382
 30
0.0
 40
2.090334961392333
100
AcDbArc
 50
266.1618738934865
 51
348.8303895100499
  0
ARC
  5
1C7
330
17
100
AcDbEntity
  8
2D$FER
100
AcDbCircle
 10
-54.38336488127243
 20
53.13813132250471
 30
0.0
 40
1.258836393207885
100
AcDbArc
 50
203.4027664553894
 51
269.6920465953073
  0
ARC
  5
1C8
330
17
100
AcDbEntity
  8
2D$FER
100
AcDbCircle
 10
-54.38336488127243
 20
53.13813132250471
 30
0.0
 40
2.258836393207885
100
AcDbArc
 50
192.7885081046929
 51
269.6920465952879
  0
LINE
  5
1C9
330
17
100
AcDbEntity
  8
2D$FER
100
AcDbLine
 10
-58.77844431737321
 20
52.63813132250471
 30
0.0
 11
-55.14220127448789
 21
52.63813132250471
 31
0.0
  0
LINE
  5
1CA
330
17
100
AcDbEntity
  8
2D$FER
100
AcDbLine
 10
-55.58616806160717
 20
53.97251159271036
 30
0.0
 11
-55.58616806160717
 21
53.63813132250652
 31
0.0
  0
LINE
  5
1CB
330
17
100
AcDbEntity
  8
2D$FER
100
AcDbLine
 10
-56.58616806160717
 20
54.10111749401221
 30
0.0
 11
-56.58616806160717
 21
53.63813132250471
 31
0.0
  0
ARC
  5
1CC
330
17
100
AcDbEntity
  8
2D$FER
100
AcDbCircle
 10
-54.38336488127243
 20
53.60111749401221
 30
0.0
 40
1.258836393207885
100
AcDbArc
 50
4.812963523196812
 51
162.8406828697054
  0
ARC
  5
1CD
330
17
100
AcDbEntity
  8
2D$FER
100
AcDbCircle
 10
-54.38336488127243
 20
53.60111749401221
 30
0.0
 40
2.258836393207885
100
AcDbArc
 50
2.68006044577101
 51
167.2114918953071
  0
ARC
  5
1CE
330
17
100
AcDbEntity
  8
2D$FER
100
AcDbCircle
 10
-59.53728071058867
 20
53.60111749401221
 30
0.0
 40
2.258836393207885
100
AcDbArc
 50
12.78850810469292
 51
177.319939554229
  0
ARC
  5
1CF
330
17
100
AcDbEntity
  8
2D$FER
100
AcDbCircle
 10
-59.53728071058867
 20
53.60111749401221
 30
0.0
 40
1.258836393207885
100
AcDbArc
 50
17.15931713029458
 51
175.1870364768032
  0
LINE
  5
1D0
330
17
100
AcDbEntity
  8
2D$FER
100
AcDbLine
 10
-57.33447753025393
 20
54.10111749401221
 30
0.0
 11
-57.33447753025393
 21
53.63813132250471
 31
0.0
  0
LINE
  5
1D1
330
17
100
AcDbEntity
  8
2D$FER
100
AcDbLine
 10
-58.33447753025393
 20
53.97251159271036
 30
0.0
 11
-58.33447753025393
 21
53.63813132250652
 31
0.0
  0
LINE
  5
1D2
330
17
100
AcDbEntity
  8
2D$FER
100
AcDbLine
 10
-52.12699918384897
 20
53.70673802590863
 30
0.0
 11
-53.12896727543557
 21
53.70673802590863
 31
0.0
  0
LINE
  5
1D3
330
17
100
AcDbEntity
  8
2D$FER
100
AcDbLine
 10
-58.77844431737321
 20
53.63813132250471
 30
0.0
 11
-55.14220127448789
 21
53.63813132250471
 31
0.0
  0
LINE
  5
1D4
330
17
100
AcDbEntity
  8
2D$FER
100
AcDbLine
 10
-61.79364640801214
 20
53.70673802590863
 30
0.0
 11
-60.79167831641098
 21
53.70673802590863
 31
0.0
  0
ARC
  5
1D5
330
17
100
AcDbEntity
  8
2D$FER
100
AcDbCircle
 10
-59.1042206693528
 20
60.12418269317641
 30
0.0
 40
8.176429598996988
100
AcDbArc
 50
179.6570191058842
 51
267.3709421006084
  0
ARC
  5
1D6
330
17
100
AcDbEntity
  8
2D$FER
100
AcDbCircle
 10
-54.95462479502021
 20
60.17911381128943
 30
0.0
 40
8.314465058169505
100
AcDbArc
 50
273.2934871530999
 51
0.0
  0
LINE
  5
1D7
330
17
100
AcDbEntity
  8
2D$FER
100
AcDbLine
 10
-58.77844431737321
 20
52.63813132250471
 30
0.0
 11
-58.77844431737321
 21
53.63813132250471
 31
0.0
  0
LINE
  5
1D8
330
17
100
AcDbEntity
  8
2D$FER
100
AcDbLine
 10
-55.14220127448789
 20
52.63813132250471
 30
0.0
 11
-55.14220127448789
 21
53.63813132250471
 31
0.0
  0
LINE
  5
1D9
330
17
100
AcDbEntity
  8
2D$FER
100
AcDbLine
 10
-57.88024397766276
 20
59.65505991079408
 30
0.0
 11
-57.23447753024811
 21
59.65505991079408
 31
0.0
  0
LINE
  5
1DA
330
17
100
AcDbEntity
  8
2D$FER
100
AcDbLine
 10
-56.68616806161299
 20
59.65505991079408
 30
0.0
 11
-56.12704461251269
 21
59.65505991079408
 31
0.0
  0
LINE
  5
1DB
330
17
100
AcDbEntity
  8
2D$FER
100
AcDbLine
 10
-56.96032279593055
 20
61.91381692737195
 30
0.0
 11
-56.12704461251269
 21
59.65505991079408
 31
0.0
  0
LINE
  5
1DC
330
17
100
AcDbEntity
  8
2D$FER
100
AcDbLine
 10
-56.96032279593055
 20
61.91381692737195
 30
0.0
 11
-57.88024397766276
 21
59.65505991079408
 31
0.0
  0
LINE
  5
1DD
330
17
100
AcDbEntity
  8
2D$FER
100
AcDbLine
 10
-44.06032279593637
 20
78.99999999999818
 30
0.0
 11
-44.06032279593637
 21
64.46400077976432
 31
0.0
  0
LINE
  5
1DE
330
17
100
AcDbEntity
  8
2D$FER
100
AcDbLine
 10
-45.46032279593055
 20
78.99999999999818
 30
0.0
 11
-45.46032279593055
 21
64.46400077976432
 31
0.0
  0
LINE
  5
1DF
330
17
100
AcDbEntity
  8
2D$FER
100
AcDbLine
 10
-67.28048585500801
 20
59.43304791115588
 30
0.0
 11
-67.28048585500801
 21
63.46400077976432
 31
0.0
  0
LINE
  5
1E0
330
17
100
AcDbEntity
  8
2D$FER
100
AcDbLine
 10
-66.74105142323242
 20
63.4640007797625
 30
0.0
 11
-66.74105142323242
 21
64.46400077976614
 31
0.0
  0
ARC
  5
1E1
330
17
100
AcDbEntity
  8
2D$FER
100
AcDbCircle
 10
-34.98521744766913
 20
73.16414054811867
 30
0.0
 40
2.090334961392333
100
AcDbArc
 50
11.16961048995017
 51
93.8381261065135
  0
ARC
  5
1E2
330
17
100
AcDbEntity
  8
2D$FER
100
AcDbCircle
 10
-29.98336488127825
 20
73.06906775386597
 30
0.0
 40
2.258836393207885
100
AcDbArc
 50
90.30795340471201
 51
167.2114918953072
  0
ARC
  5
1E3
330
17
100
AcDbEntity
  8
2D$FER
100
AcDbCircle
 10
-34.70422066934407
 20
66.08301638319608
 30
0.0
 40
9.176429598996988
100
AcDbArc
 50
92.6290578993883
 51
180.3429808941212
  0
ARC
  5
1E4
330
17
100
AcDbEntity
  8
2D$FER
100
AcDbCircle
 10
-34.70422066934407
 20
66.08301638319608
 30
0.0
 40
8.176429598996988
100
AcDbArc
 50
92.62905789939154
 51
180.3429808941158
  0
ARC
  5
1E5
330
17
100
AcDbEntity
  8
2D$FER
100
AcDbCircle
 10
-30.55462479501148
 20
66.02808526508124
 30
0.0
 40
9.314465058169505
100
AcDbArc
 50
0.0
 51
86.70651284689774
  0
ARC
  5
1E6
330
17
100
AcDbEntity
  8
2D$FER
100
AcDbCircle
 10
-30.55462479501148
 20
66.02808526508124
 30
0.0
 40
8.314465058169505
100
AcDbArc
 50
0.0
 51
86.70651284690014
  0
ARC
  5
1E7
330
17
100
AcDbEntity
  8
2D$FER
100
AcDbCircle
 10
-34.98521744766913
 20
73.16414054811867
 30
0.0
 40
1.090334961392333
100
AcDbArc
 50
21.80067186167022
 51
93.83812610642812
  0
ARC
  5
1E8
330
17
100
AcDbEntity
  8
2D$FER
100
AcDbCircle
 10
-29.98336488127825
 20
73.06906775386597
 30
0.0
 40
1.258836393207885
100
AcDbArc
 50
90.30795340469295
 51
156.5972335446109
  0
LINE
  5
1E9
330
17
100
AcDbEntity
  8
2D$FER
100
AcDbLine
 10
-34.37844431737904
 20
73.56906775386597
 30
0.0
 11
-30.74220127447916
 21
73.56906775386597
 31
0.0
  0
LINE
  5
1EA
330
17
100
AcDbEntity
  8
2D$FER
100
AcDbLine
 10
-31.18616806161299
 20
72.23468748366213
 30
0.0
 11
-31.18616806159844
 21
72.56906775386597
 31
0.0
  0
LINE
  5
1EB
330
17
100
AcDbEntity
  8
2D$FER
100
AcDbLine
 10
-32.18616806161299
 20
72.10608158236028
 30
0.0
 11
-32.18616806161299
 21
72.56906775386597
 31
0.0
  0
ARC
  5
1EC
330
17
100
AcDbEntity
  8
2D$FER
100
AcDbCircle
 10
-29.98336488127825
 20
72.60608158236028
 30
0.0
 40
1.258836393207885
100
AcDbArc
 50
197.1593171302946
 51
355.1870364768035
  0
ARC
  5
1ED
330
17
100
AcDbEntity
  8
2D$FER
100
AcDbCircle
 10
-29.98336488127825
 20
72.60608158236028
 30
0.0
 40
2.258836393207885
100
AcDbArc
 50
192.7885081046931
 51
357.3199395542293
  0
ARC
  5
1EE
330
17
100
AcDbEntity
  8
2D$FER
100
AcDbCircle
 10
-35.13728071057994
 20
72.60608158236028
 30
0.0
 40
2.258836393207885
100
AcDbArc
 50
182.680060445771
 51
347.2114918953073
  0
ARC
  5
1EF
330
17
100
AcDbEntity
  8
2D$FER
100
AcDbCircle
 10
-35.13728071057994
 20
72.60608158236028
 30
0.0
 40
1.258836393207885
100
AcDbArc
 50
184.8129635231971
 51
342.8406828697055
  0
LINE
  5
1F0
330
17
100
AcDbEntity
  8
2D$FER
100
AcDbLine
 10
-32.93447753025976
 20
72.10608158236028
 30
0.0
 11
-32.93447753025976
 21
72.56906775386597
 31
0.0
  0
LINE
  5
1F1
330
17
100
AcDbEntity
  8
2D$FER
100
AcDbLine
 10
-33.93447753025976
 20
72.23468748366213
 30
0.0
 11
-33.93447753025976
 21
72.56906775386597
 31
0.0
  0
LINE
  5
1F2
330
17
100
AcDbEntity
  8
2D$FER
100
AcDbLine
 10
-27.72699918385479
 20
72.50046105046385
 30
0.0
 11
-28.72896727544139
 21
72.50046105046385
 31
0.0
  0
LINE
  5
1F3
330
17
100
AcDbEntity
  8
2D$FER
100
AcDbLine
 10
-34.37844431737904
 20
72.56906775386597
 30
0.0
 11
-30.74220127447916
 21
72.56906775386597
 31
0.0
  0
LINE
  5
1F4
330
17
100
AcDbEntity
  8
2D$FER
100
AcDbLine
 10
-37.39364640800341
 20
72.50046105046385
 30
0.0
 11
-36.3916783164168
 21
72.50046105046385
 31
0.0
  0
LINE
  5
1F5
330
17
100
AcDbEntity
  8
2D$FER
100
AcDbLine
 10
-34.37844431737904
 20
73.56906775386597
 30
0.0
 11
-34.37844431737904
 21
72.56906775386597
 31
0.0
  0
LINE
  5
1F6
330
17
100
AcDbEntity
  8
2D$FER
100
AcDbLine
 10
-30.74220127447916
 20
73.56906775386597
 30
0.0
 11
-30.74220127447916
 21
72.56906775386597
 31
0.0
  0
LINE
  5
1F7
330
17
100
AcDbEntity
  8
2D$FER
100
AcDbLine
 10
-43.88048585501383
 20
66.02808526508124
 30
0.0
 11
-43.88048585501383
 21
64.46400077976614
 31
0.0
  0
LINE
  5
1F8
330
17
100
AcDbEntity
  8
2D$FER
100
AcDbLine
 10
-42.88048585501383
 20
66.02808526508124
 30
0.0
 11
-42.88048585501383
 21
64.46400077976614
 31
0.0
  0
LINE
  5
1F9
330
17
100
AcDbEntity
  8
2D$FER
100
AcDbLine
 10
-21.24015973684436
 20
66.02808526508124
 30
0.0
 11
-21.24015973684436
 21
64.46400077976614
 31
0.0
  0
LINE
  5
1FA
330
17
100
AcDbEntity
  8
2D$FER
100
AcDbLine
 10
-22.24015973684436
 20
66.02808526508124
 30
0.0
 11
-22.24015973684436
 21
64.46400077976614
 31
0.0
  0
LINE
  5
1FB
330
17
100
AcDbEntity
  8
2D$FER
100
AcDbLine
 10
-22.24015973684436
 20
59.43304791115588
 30
0.0
 11
-22.24015973684436
 21
63.46400077976614
 31
0.0
  0
LINE
  5
1FC
330
17
100
AcDbEntity
  8
2D$FER
100
AcDbLine
 10
-21.24015973684436
 20
59.43304791115588
 30
0.0
 11
-21.24015973684436
 21
63.46400077976614
 31
0.0
  0
LINE
  5
1FD
330
17
100
AcDbEntity
  8
2D$FER
100
AcDbLine
 10
-22.7795941686345
 20
63.46400077976614
 30
0.0
 11
-22.7795941686345
 21
64.46400077976614
 31
0.0
  0
LINE
  5
1FE
330
17
100
AcDbEntity
  8
2D$FER
100
AcDbLine
 10
-22.7795941686345
 20
63.46400077976614
 30
0.0
 11
-17.94105142322951
 21
63.46400077976432
 31
0.0
  0
LINE
  5
1FF
330
17
100
AcDbEntity
  8
2D$FER
100
AcDbLine
 10
-22.7795941686345
 20
64.46400077976432
 30
0.0
 11
-17.94105142322951
 21
64.46400077976796
 31
0.0
  0
LINE
  5
200
330
17
100
AcDbEntity
  8
2D$FER
100
AcDbLine
 10
-17.94105142322951
 20
63.46400077976432
 30
0.0
 11
-17.94105142322951
 21
64.46400077976796
 31
0.0
  0
LINE
  5
201
330
17
100
AcDbEntity
  8
2D$FER
100
AcDbLine
 10
-32.83447753025393
 20
59.6550599107959
 30
0.0
 11
-32.83447753025393
 21
53.63813132250652
 31
0.0
  0
LINE
  5
202
330
17
100
AcDbEntity
  8
2D$FER
100
AcDbLine
 10
-32.28616806160426
 20
59.6550599107959
 30
0.0
 11
-32.28616806160426
 21
53.63813132250652
 31
0.0
  0
ARC
  5
203
330
17
100
AcDbEntity
  8
2D$FER
100
AcDbCircle
 10
-34.98521744766913
 20
53.04305852825564
 30
0.0
 40
1.090334961392333
100
AcDbArc
 50
266.1618738935719
 51
338.1993281383303
  0
ARC
  5
204
330
17
100
AcDbEntity
  8
2D$FER
100
AcDbCircle
 10
-34.98521744766913
 20
53.04305852825564
 30
0.0
 40
2.090334961392333
100
AcDbArc
 50
266.1618738934865
 51
348.8303895100499
  0
ARC
  5
205
330
17
100
AcDbEntity
  8
2D$FER
100
AcDbCircle
 10
-29.98336488127825
 20
53.13813132250652
 30
0.0
 40
1.258836393207885
100
AcDbArc
 50
203.4027664553895
 51
269.6920465953071
  0
ARC
  5
206
330
17
100
AcDbEntity
  8
2D$FER
100
AcDbCircle
 10
-29.98336488127825
 20
53.13813132250652
 30
0.0
 40
2.258836393207885
100
AcDbArc
 50
192.7885081046929
 51
269.692046595288
  0
LINE
  5
207
330
17
100
AcDbEntity
  8
2D$FER
100
AcDbLine
 10
-34.37844431737904
 20
52.63813132250652
 30
0.0
 11
-30.74220127447916
 21
52.63813132250652
 31
0.0
  0
LINE
  5
208
330
17
100
AcDbEntity
  8
2D$FER
100
AcDbLine
 10
-31.18616806161299
 20
53.97251159271036
 30
0.0
 11
-31.18616806159844
 21
53.63813132250652
 31
0.0
  0
LINE
  5
209
330
17
100
AcDbEntity
  8
2D$FER
100
AcDbLine
 10
-32.18616806161299
 20
54.10111749401221
 30
0.0
 11
-32.18616806161299
 21
53.63813132250652
 31
0.0
  0
ARC
  5
20A
330
17
100
AcDbEntity
  8
2D$FER
100
AcDbCircle
 10
-29.98336488127825
 20
53.60111749401221
 30
0.0
 40
1.258836393207885
100
AcDbArc
 50
4.812963523196812
 51
162.8406828697054
  0
ARC
  5
20B
330
17
100
AcDbEntity
  8
2D$FER
100
AcDbCircle
 10
-29.98336488127825
 20
53.60111749401221
 30
0.0
 40
2.258836393207885
100
AcDbArc
 50
2.68006044577101
 51
167.2114918953071
  0
ARC
  5
20C
330
17
100
AcDbEntity
  8
2D$FER
100
AcDbCircle
 10
-35.13728071057994
 20
53.60111749401221
 30
0.0
 40
2.258836393207885
100
AcDbArc
 50
12.78850810469292
 51
177.319939554229
  0
ARC
  5
20D
330
17
100
AcDbEntity
  8
2D$FER
100
AcDbCircle
 10
-35.13728071057994
 20
53.60111749401221
 30
0.0
 40
1.258836393207885
100
AcDbArc
 50
17.15931713029458
 51
175.1870364768032
  0
LINE
  5
20E
330
17
100
AcDbEntity
  8
2D$FER
100
AcDbLine
 10
-32.93447753025976
 20
54.10111749401221
 30
0.0
 11
-32.93447753025976
 21
53.63813132250652
 31
0.0
  0
LINE
  5
20F
330
17
100
AcDbEntity
  8
2D$FER
100
AcDbLine
 10
-33.93447753025976
 20
53.97251159271036
 30
0.0
 11
-33.93447753025976
 21
53.63813132250652
 31
0.0
  0
LINE
  5
210
330
17
100
AcDbEntity
  8
2D$FER
100
AcDbLine
 10
-27.72699918385479
 20
53.70673802591045
 30
0.0
 11
-28.72896727544139
 21
53.70673802591045
 31
0.0
  0
LINE
  5
211
330
17
100
AcDbEntity
  8
2D$FER
100
AcDbLine
 10
-34.37844431737904
 20
53.63813132250652
 30
0.0
 11
-30.74220127447916
 21
53.63813132250652
 31
0.0
  0
LINE
  5
212
330
17
100
AcDbEntity
  8
2D$FER
100
AcDbLine
 10
-37.39364640800341
 20
53.70673802591045
 30
0.0
 11
-36.3916783164168
 21
53.70673802591045
 31
0.0
  0
ARC
  5
213
330
17
100
AcDbEntity
  8
2D$FER
100
AcDbCircle
 10
-34.70422066934407
 20
60.12418269317823
 30
0.0
 40
8.176429598996988
100
AcDbArc
 50
179.6570191058842
 51
267.3709421006084
  0
ARC
  5
214
330
17
100
AcDbEntity
  8
2D$FER
100
AcDbCircle
 10
-30.55462479501148
 20
60.17911381129124
 30
0.0
 40
8.314465058169505
100
AcDbArc
 50
273.2934871530999
 51
0.0
  0
LINE
  5
215
330
17
100
AcDbEntity
  8
2D$FER
100
AcDbLine
 10
-34.37844431737904
 20
52.63813132250652
 30
0.0
 11
-34.37844431737904
 21
53.63813132250652
 31
0.0
  0
LINE
  5
216
330
17
100
AcDbEntity
  8
2D$FER
100
AcDbLine
 10
-30.74220127447916
 20
52.63813132250652
 30
0.0
 11
-30.74220127447916
 21
53.63813132250652
 31
0.0
  0
LINE
  5
217
330
17
100
AcDbEntity
  8
2D$FER
100
AcDbLine
 10
-33.48024397766858
 20
59.65505991079408
 30
0.0
 11
-32.83447753025393
 21
59.6550599107959
 31
0.0
  0
LINE
  5
218
330
17
100
AcDbEntity
  8
2D$FER
100
AcDbLine
 10
-32.28616806160426
 20
59.6550599107959
 30
0.0
 11
-31.72704461251851
 21
59.65505991079408
 31
0.0
  0
LINE
  5
219
330
17
100
AcDbEntity
  8
2D$FER
100
AcDbLine
 10
-32.56032279593637
 20
61.91381692737195
 30
0.0
 11
-31.72704461251851
 21
59.65505991079408
 31
0.0
  0
LINE
  5
21A
330
17
100
AcDbEntity
  8
2D$FER
100
AcDbLine
 10
-32.56032279593637
 20
61.91381692737195
 30
0.0
 11
-33.48024397766858
 21
59.65505991079408
 31
0.0
  0
LINE
  5
21B
330
17
100
AcDbEntity
  8
2D$FER
100
AcDbLine
 10
-19.66032279592764
 20
78.99999999999818
 30
0.0
 11
-19.66032279592764
 21
64.46400077976614
 31
0.0
  0
LINE
  5
21C
330
17
100
AcDbEntity
  8
2D$FER
100
AcDbLine
 10
-21.06032279593637
 20
78.99999999999818
 30
0.0
 11
-21.06032279593637
 21
64.46400077976432
 31
0.0
  0
LINE
  5
21D
330
17
100
AcDbEntity
  8
2D$FER
100
AcDbLine
 10
-42.88048585501383
 20
59.43304791115588
 30
0.0
 11
-42.88048585501383
 21
63.46400077976614
 31
0.0
  0
LINE
  5
21E
330
17
100
AcDbEntity
  8
2D$FER
100
AcDbLine
 10
-43.88048585501383
 20
59.43304791115588
 30
0.0
 11
-43.88048585501383
 21
63.46400077976614
 31
0.0
  0
LINE
  5
21F
330
17
100
AcDbEntity
  8
2D$FER
100
AcDbLine
 10
-21.06032279592182
 20
1.484879707200889
 30
0.0
 11
-22.54064901456877
 21
9.076757e-10
 31
0.0
  0
LINE
  5
220
330
17
100
AcDbEntity
  8
2D$FER
100
AcDbLine
 10
-19.66032279591309
 20
1.484879707200889
 30
0.0
 11
-18.17999657726614
 21
9.076757e-10
 31
0.0
  0
LINE
  5
221
330
17
100
AcDbEntity
  8
2D$FER
100
AcDbLine
 10
-21.06032279592182
 20
1.484879707200889
 30
0.0
 11
-19.66032279591309
 21
1.484879707200889
 31
0.0
  0
LINE
  5
222
330
17
100
AcDbEntity
  8
2D$FER
100
AcDbLine
 10
-106.9603227959451
 20
6.499999999998181
 30
0.0
 11
-6.960322795915999
 21
6.499999999998181
 31
0.0
  0
LINE
  5
223
330
17
100
AcDbEntity
  8
2D$FER
100
AcDbLine
 10
-106.9603227959451
 20
4.999999999998181
 30
0.0
 11
-6.960322795915999
 21
4.999999999998181
 31
0.0
  0
LINE
  5
224
330
17
100
AcDbEntity
  8
2D$FER
100
AcDbLine
 10
-106.9603227959451
 20
79.99999999999818
 30
0.0
 11
-6.960322795945103
 21
79.99999999999818
 31
0.0
  0
LINE
  5
225
330
17
100
AcDbEntity
  8
2D$FER
100
AcDbLine
 10
-106.9603227959451
 20
78.99999999999818
 30
0.0
 11
-6.960322795945103
 21
78.99999999999818
 31
0.0
  0
LINE
  5
226
330
17
100
AcDbEntity
  8
2D$FER
100
AcDbLine
 10
-92.86032279596839
 20
5.000000000907676
 30
0.0
 11
-92.86032279596839
 21
1.484879707200889
 31
0.0
  0
LINE
  5
227
330
17
100
AcDbEntity
  8
2D$FER
100
AcDbLine
 10
-94.26032279597712
 20
5.000000000907676
 30
0.0
 11
-94.26032279597712
 21
1.484879707200889
 31
0.0
  0
LINE
  5
228
330
17
100
AcDbEntity
  8
2D$FER
100
AcDbLine
 10
-92.86032279596839
 20
1.484879707200889
 30
0.0
 11
-91.37999657732144
 21
9.076757e-10
 31
0.0
  0
LINE
  5
229
330
17
100
AcDbEntity
  8
2D$FER
100
AcDbLine
 10
-94.26032279597712
 20
1.484879707200889
 30
0.0
 11
-95.74064901462407
 21
9.076757e-10
 31
0.0
  0
LINE
  5
22A
330
17
100
AcDbEntity
  8
2D$FER
100
AcDbLine
 10
-92.86032279596839
 20
1.484879707200889
 30
0.0
 11
-94.26032279597712
 21
1.484879707200889
 31
0.0
  0
ENDSEC
  0
SECTION
  2
OBJECTS
  0
DICTIONARY
  5
A
330
0
100
AcDbDictionary
281
1
  3
ACAD_COLOR
350
B
  3
ACAD_GROUP
350
C
  3
ACAD_LAYOUT
350
D
  3
ACAD_MATERIAL
350
E
  3
ACAD_MLEADERSTYLE
350
F
  3
ACAD_MLINESTYLE
350
10
  3
ACAD_PLOTSETTINGS
350
11
  3
ACAD_PLOTSTYLENAME
350
12
  3
ACAD_SCALELIST
350
14
  3
ACAD_TABLESTYLE
350
15
  3
ACAD_VISUALSTYLE
350
16
  3
EZDXF_META
350
2D
  0
DICTIONARY
  5
B
330
A
100
AcDbDictionary
281
1
  0
DICTIONARY
  5
C
330
A
100
AcDbDictionary
281
1
  0
DICTIONARY
  5
D
330
A
100
AcDbDictionary
281
1
  3
Model
350
1A
  3
Layout1
350
1E
  0
DICTIONARY
  5
E
330
A
100
AcDbDictionary
281
1
  3
ByBlock
350
1F
  3
ByLayer
350
20
  3
Global
350
21
  0
DICTIONARY
  5
F
330
A
100
AcDbDictionary
281
1
  3
Standard
350
2C
  0
DICTIONARY
  5
10
330
A
100
AcDbDictionary
281
1
  3
Standard
350
22
  0
DICTIONARY
  5
11
330
A
100
AcDbDictionary
281
1
  0
ACDBDICTIONARYWDFLT
  5
12
330
A
100
AcDbDictionary
281
1
  3
Normal
350
13
100
AcDbDictionaryWithDefault
340
13
  0
ACDBPLACEHOLDER
  5
13
330
12
  0
DICTIONARY
  5
14
330
A
100
AcDbDictionary
281
1
  0
DICTIONARY
  5
15
330
A
100
AcDbDictionary
281
1
  0
DICTIONARY
  5
16
330
A
100
AcDbDictionary
281
1
  0
LAYOUT
  5
1A
330
D
100
AcDbPlotSettings
  1

  4
A3
  6

 40
7.5
 41
20.0
 42
7.5
 43
20.0
 44
420.0
 45
297.0
 46
0.0
 47
0.0
 48
0.0
 49
0.0
140
0.0
141
0.0
142
1.0
143
1.0
 70
1024
 72
1
 73
0
 74
5
  7

 75
16
 76
0
 77
2
 78
300
147
1.0
148
0.0
149
0.0
100
AcDbLayout
  1
Model
 70
1
 71
0
 10
0.0
 20
0.0
 11
420.0
 21
297.0
 12
0.0
 22
0.0
 32
0.0
 14
1e+20
 24
1e+20
 34
1e+20
 15
-1e+20
 25
-1e+20
 35
-1e+20
146
0.0
 13
0.0
 23
0.0
 33
0.0
 16
1.0
 26
0.0
 36
0.0
 17
0.0
 27
1.0
 37
0.0
 76
1
330
17
  0
LAYOUT
  5
1E
330
D
100
AcDbPlotSettings
  1

  4
A3
  6

 40
7.5
 41
20.0
 42
7.5
 43
20.0
 44
420.0
 45
297.0
 46
0.0
 47
0.0
 48
0.0
 49
0.0
140
0.0
141
0.0
142
1.0
143
1.0
 70
0
 72
1
 73
0
 74
5
  7

 75
16
 76
0
 77
2
 78
300
147
1.0
148
0.0
149
0.0
100
AcDbLayout
  1
Layout1
 70
1
 71
1
 10
0.0
 20
0.0
 11
420.0
 21
297.0
 12
0.0
 22
0.0
 32
0.0
 14
1e+20
 24
1e+20
 34
1e+20
 15
-1e+20
 25
-1e+20
 35
-1e+20
146
0.0
 13
0.0
 23
0.0
 33
0.0
 16
1.0
 26
0.0
 36
0.0
 17
0.0
 27
1.0
 37
0.0
 76
1
330
1B
  0
MATERIAL
  5
1F
102
{ACAD_REACTORS
330
E
102
}
330
E
100
AcDbMaterial
  1
ByBlock
  2

 70
0
 40
1.0
 71
1
 41
1.0
 91
-1023410177
 42
1.0
 72
1
  3

 73
1
 74
1
 75
1
 44
0.5
 73
0
 45
1.0
 46
1.0
 77
1
  4

 78
1
 79
1
170
1
 48
1.0
171
1
  6

172
1
173
1
174
1
140
1.0
141
1.0
175
1
  7

176
1
177
1
178
1
143
1.0
179
1
  8

270
1
271
1
272
1
145
1.0
146
1.0
273
1
  9

274
1
275
1
276
1
 42
1.0
 72
1
  3

 73
1
 74
1
 75
1
 94
63
  0
MATERIAL
  5
20
102
{ACAD_REACTORS
330
E
102
}
330
E
100
AcDbMaterial
  1
ByLayer
  2

 70
0
 40
1.0
 71
1
 41
1.0
 91
-1023410177
 42
1.0
 72
1
  3

 73
1
 74
1
 75
1
 44
0.5
 73
0
 45
1.0
 46
1.0
 77
1
  4

 78
1
 79
1
170
1
 48
1.0
171
1
  6

172
1
173
1
174
1
140
1.0
141
1.0
175
1
  7

176
1
177
1
178
1
143
1.0
179
1
  8

270
1
271
1
272
1
145
1.0
146
1.0
273
1
  9

274
1
275
1
276
1
 42
1.0
 72
1
  3

 73
1
 74
1
 75
1
 94
63
  0
MATERIAL
  5
21
102
{ACAD_REACTORS
330
E
102
}
330
E
100
AcDbMaterial
  1
Global
  2

 70
0
 40
1.0
 71
1
 41
1.0
 91
-1023410177
 42
1.0
 72
1
  3

 73
1
 74
1
 75
1
 44
0.5
 73
0
 45
1.0
 46
1.0
 77
1
  4

 78
1
 79
1
170
1
 48
1.0
171
1
  6

172
1
173
1
174
1
140
1.0
141
1.0
175
1
  7

176
1
177
1
178
1
143
1.0
179
1
  8

270
1
271
1
272
1
145
1.0
146
1.0
273
1
  9

274
1
275
1
276
1
 42
1.0
 72
1
  3

 73
1
 74
1
 75
1
 94
63
  0
MLINESTYLE
  5
22
102
{ACAD_REACTORS
330
10
102
}
330
10
100
AcDbMlineStyle
  2
Standard
 70
0
  3

 62
256
 51
90.0
 52
90.0
 71
2
 49
0.5
 62
256
  6
BYLAYER
 49
-0.5
 62
256
  6
BYLAYER
  0
MLEADERSTYLE
  5
2C
102
{ACAD_REACTORS
330
F
102
}
330
F
100
AcDbMLeaderStyle
179
2
170
2
171
1
172
0
 90
2
 40
0.0
 41
0.0
173
1
 91
-1056964608
 92
-2
290
1
 42
2.0
291
1
 43
8.0
  3
Standard
 44
4.0
300

342
29
174
1
175
1
176
0
178
1
 93
-1056964608
 45
4.0
292
0
297
0
 46
4.0
 94
-1056964608
 47
1.0
 49
1.0
140
1.0
294
1
141
0.0
177
0
142
1.0
295
0
296
0
143
3.75
271
0
272
9
273
9
  0
DICTIONARY
  5
2D
330
A
100
AcDbDictionary
280
1
281
1
  3
CREATED_BY_EZDXF
350
2E
  3
WRITTEN_BY_EZDXF
350
22D
  0
DICTIONARYVAR
  5
2E
330
2D
100
DictionaryVariables
280
0
  1
1.4.4 @ 2026-09-28T22:02:12.971427+00:00
  0
DICTIONARYVAR
  5
22D
330
2D
100
DictionaryVariables
280
0
  1
1.4.4 @ 2026-09-28T22:02:12.982450+00:00
  0
ENDSEC
  0
EOF
